<?xml version="1.0" encoding="utf-8"?>
<!-- Generator: Adobe Illustrator 26.2.1, SVG Export Plug-In . SVG Version: 6.00 Build 0)  -->
<svg version="1.1" id="Layer_1" xmlns="http://www.w3.org/2000/svg" xmlns:xlink="http://www.w3.org/1999/xlink" x="0px" y="0px"
	 viewBox="0 0 1920 1080" style="enable-background:new 0 0 1920 1080;" xml:space="preserve">
<style type="text/css">
	.st0{fill:#FFFFFF;stroke:#000000;stroke-width:0.25;stroke-miterlimit:10;}
</style>
<path class="st0" d="M949.1,501.9c15.5-2.2,26.9,7.2,30.6,17.4c5.2,14.3-2.3,32.8-21.5,36.8c-18.2,3.8-35.4-15.5-29.8-34.6
	C931.7,510.8,939.3,505,949.1,501.9z"/>
<path class="st0" d="M950.1,513c-2.1,1.7-3.7,2.4-4.8,5.3c-2.5,5.2,2,9.7,5.8,10.6c-0.1,5.3-1.7,13,0.5,17.8
	c4.8-1.1,9.6-2.7,14.4-3.8c0-0.6,0-1.3,0-1.9c-2.6-4.8-5.1-9.5-7.6-13.7c2-2.3,2.7-3.9,2.8-7.4c-1.8-2.9-2.3-5-5.8-6.2
	C953.8,512.9,952.3,512.8,950.1,513z"/>
<path class="st0" d="M988.9,548c3.4,3,3.7,11.7,5.3,16.3c-20,4.8-40,9.6-60,14.4c0-0.3,0-0.6,0-1c-1.3-4.6-2.6-9.3-3.8-13.9
	C945.6,560.1,965.6,555.8,988.9,548z"/>
</svg>
