<?xml version="1.0" encoding="utf-8"?>
<!-- Generator: Adobe Illustrator 26.2.1, SVG Export Plug-In . SVG Version: 6.00 Build 0)  -->
<svg version="1.1" id="Layer_1" xmlns="http://www.w3.org/2000/svg" xmlns:xlink="http://www.w3.org/1999/xlink" x="0px" y="0px"
	 viewBox="0 0 1920 1080" style="enable-background:new 0 0 1920 1080;" xml:space="preserve">
<style type="text/css">
	.st0{fill:#FFFFFF;stroke:#000000;stroke-width:0.25;stroke-miterlimit:10;}
</style>
<path class="st0" d="M926.5,500.5c4.7,0.2,9.2,1.4,13,2.4c0.4,1.3-0.3,3.2,0,4.3c0.1,0.4,2.2,3,2.4,3.4c0.5,0.8-0.1,2.1,0.5,3.4
	c0.9,1.9,3.3,3.1,2.9,4.8c-2.8,1.2-1,3.5-2.4,7.7c1.3,0.6,2.9,1.4,3.8,2.4c7.5,0.4,15.7-4.7,21.6-8.2c2.8-1.6,5-1.7,8.2-2.9
	c3.1-1.2,10.9-4.6,12-3.4c1.4,2.4,2.6,6.3,1.9,9.6c-2.1,1.2-19.2,10.1-26.9,14.4c-2.6,1.5-7.8,2.1-8.6,5.3c2.1,2.8,2.5,5.8,3.4,10.1
	c0.2,0.9,5.6,10.9,7.2,16.8c-2.8,1.7-6.2,3-10.1,3.8c-3.7,0.8-11.1,1-14.4,0.5c-6-0.9-8.2-1.3-13-3.4c-9.8-4.2-15.1-10.8-21.1-18.2
	c-0.2-6.1,0-9,2.4-11.5c3.8-4,8.4-7.5,9.1-9.1c0.8-1.8-0.3-2.3,0.5-4.3c0.7-1.8,2-1.3,2.4-3.8c-3.4-4.2-4.2-10.1-3.8-16.8
	c0.9-1.2,2.7-4.2,4.8-5.8C923.7,501.8,925.5,501.3,926.5,500.5z"/>
<path class="st0" d="M993.7,519.7c-0.3-2.3-1.1-3.4-1.4-5.8c0.3,0,0.6,0,1,0c3.7-2.5,14.8-5.3,20.2-5.8c0.3,0.7,0.3,0.8,0.5,1.9
	c-1.7,0.8-4.4,1.6-5.3,3.4c1.4,1.2,0.7,4.7-0.5,6.2c-0.6,0.4-1.2,0.4-2.4,0.5C1002.8,518.1,996.6,519.2,993.7,519.7z"/>
</svg>
