<?xml version="1.0" encoding="utf-8"?>
<!-- Generator: Adobe Illustrator 26.2.1, SVG Export Plug-In . SVG Version: 6.00 Build 0)  -->
<svg version="1.1" id="Layer_1" xmlns="http://www.w3.org/2000/svg" xmlns:xlink="http://www.w3.org/1999/xlink" x="0px" y="0px"
	 viewBox="0 0 113.3 113.3" style="enable-background:new 0 0 113.3 113.3;" xml:space="preserve">
<style type="text/css">
	.st0{fill:#FFFFFF;stroke:#000000;stroke-width:0.25;stroke-miterlimit:10;}
</style>
<path class="st0" d="M57.1,15.4c2.9,0.1,5.9-0.1,8.6,1.4c4,2.3,10.2,11.1,8.6,20.6c-1.3,7.9-2.5,8-2.9,12c-0.1,1.5-0.1,2.6,0.5,4.3
	c1,0.3,2.5,0.8,3.4,1c0.6,0.1-0.5,2,0,2.4c3.9,3.2,8.5,10.4,13,13.4c2.2-1.5,6.9-2.3,10.1-2.4c0,0.2,0,0.3,0,0.5
	c-0.6,2.4-1.6,4.3-2.9,6.2c-1.8,2.7-4.7,7.1-7.2,9.1C75,95,56.4,101.7,37,91.7c-3.4-1.8-7.7-2.7-9.1-6.2c8.5-2.1,17-4.2,25.4-6.2
	c0-0.3,0-0.6,0-1c-0.9-1.2-1.3-3.3-1.9-4.8c-2-1-5.4-1.2-7.7-2.4c-1.7-0.9-2-3.1-3.4-4.3c-1.6,0-3.2-0.3-4.8-1.4
	c-3.9-2.9-6.1-8.8-10.1-11.5c-3.8-2.6-10.1-2.7-10.6-8.6c0.8-0.3,1.2-0.4,2.4-0.5c2.3,1.3,8.3,4.9,10.6,4.8c0.4-0.5,0.2-0.1,0.5-1
	c-3-2.2-7.3-8.6-8.2-12.5c0.5-1.6,1.1-1.7,2.9-1.9c2.1,3.5,6,8.4,8.6,11c0-0.3,0-0.6,0-1c-2.3-2.3-6.4-10.9-6.7-14.9
	c0.8-1,1.3-1.5,3.4-1c2.1,2.7,5.1,8.5,7.2,13.4c0.2,0,0.3,0,0.5,0c0-0.3,0-0.6,0-1c-0.9-2.7-2.3-11.3-1.4-13c0.5-0.4,1.6-0.4,2.4,0
	c3.3,5.5,3.7,20.4,8.6,21.1c1.5-2.7,3.8-5.1,5.8-7.2c-0.9-0.8-2.5-2.7-2.9-3.8c-0.7-2.4,1.1-3.4,1-4.8c-1.6-2.4-1.4-9.7,0-12
	C51.3,18,53.5,17,57.1,15.4z"/>
<path class="st0" d="M51.8,49.9c0.8,0,1.6,0,2.4,0c0.3-0.5,0.6-1,1-1.4c-1.2-0.9-1.1-1.8-1.9-2.9C53,47.8,52.2,47.8,51.8,49.9z"/>
</svg>
