<?xml version="1.0" encoding="utf-8"?>
<!-- Generator: Adobe Illustrator 26.2.1, SVG Export Plug-In . SVG Version: 6.00 Build 0)  -->
<svg version="1.1" id="Layer_1" xmlns="http://www.w3.org/2000/svg" xmlns:xlink="http://www.w3.org/1999/xlink" x="0px" y="0px"
	 viewBox="0 0 1920 1080" style="enable-background:new 0 0 1920 1080;" xml:space="preserve">
<style type="text/css">
	.st0{fill:#FFFFFF;stroke:#000000;stroke-width:0.25;stroke-miterlimit:10;}
</style>
<path class="st0" d="M988.5,549c1,8.6,1.9,17.3,2.9,25.9c-2.1,1.4-11.4,8.7-13.9,7.2c-1.6-1.9-0.6-6-1.9-8.2
	c-3.5,2.4-8.4,2.1-13,3.4c-3.2,0.9-11.5,5.9-15.4,4.8c-14.7-4.2-29.3-23.2-29.3-42.2c1,0,1.9,0,2.9,0c0.8,1.7,1.5,3.6,1.9,5.8
	c0.4-0.5,0.2-0.1,0.5-1c2.2-3.3,1.3-7.9,2.4-12.5c2.4-9.9,4-20,12.5-23.5c1.9-0.8,4.3,0.1,6.7-0.5c5.1-1.2,6.3-2.3,9.1-0.5
	c1.1-0.9,1.9-1.5,2.9-2.4c4.4-4.2,6.5-8.9,17.8-8.2c1.2,0,4.5,2.8,6.9,6.9c0.3,0.6-0.2,1.3,0.3,1.8c1.2,1.4,2.6,1.1,2.4,7.2
	c2,3.3-1.8,5.9-1.9,9.1c-0.2,5.2,0.9,4.2,1.9,6.7c0.8,2.1-0.8,4.5-1,5.8c-0.1,1.1,0.5,3.5,0.5,5.3c8.9,1.9,18.3,8.9,19.7,18.2
	c-2.1,2.8-2.1,6-6.2,6.7c-0.9-1.2-1.5-1.1-1.9-2.9c0.4-0.4,0.6-0.8,1-1.4c-1.1-0.1-1.2-0.2-1.9-0.5c0.1-5.6-2.5-7.2-4.3-11
	C989.4,549,988.9,549,988.5,549z"/>
<path class="st0" d="M975,521.6c-0.5,2.2-1.2,4.1-3.8,4.3c-0.2-0.2-2.4,0.4-3.4,0.5c-1.3,0.1-1.6-0.2-2.4,0.5
	c-0.6,0.7-1.8,0.8-1.4,1.4c1.6,2.6,6.3,6.6,10.1,7.2c0.6-4.4,2.6-9.7,1.9-13.9C975.7,521.6,975.3,521.6,975,521.6z"/>
<path class="st0" d="M955.8,555.7c5.6-0.3,9.7-3.3,13.9-5.3c0-0.2,0-0.3,0-0.5c-3.8-0.2-5.2-2.3-8.2-3.4
	C959.2,549.5,956,550.4,955.8,555.7z"/>
</svg>
