<?xml version="1.0" encoding="utf-8"?>
<!-- Generator: Adobe Illustrator 26.2.1, SVG Export Plug-In . SVG Version: 6.00 Build 0)  -->
<svg version="1.1" id="Layer_1" xmlns="http://www.w3.org/2000/svg" xmlns:xlink="http://www.w3.org/1999/xlink" x="0px" y="0px"
	 viewBox="0 0 1920 1080" style="enable-background:new 0 0 1920 1080;" xml:space="preserve">
<style type="text/css">
	.st0{fill:#FFFFFF;stroke:#000000;stroke-width:0.25;stroke-miterlimit:10;}
</style>
<path class="st0" d="M1144.7,378.8c17.9,72.5,35.8,145,53.8,217.4c-141.3,34.9-282.6,69.8-423.8,104.6
	C757,628.2,739.4,555.6,721.8,483C862.7,448.2,1003.7,413.5,1144.7,378.8z"/>
<path class="st0" d="M1131.7,399c-130.1,32.2-260.2,64.3-390.2,96.5c15,61.6,30.1,123.2,45.1,184.8c0.2,0,0.3,0,0.5,0
	c459.1-113.5,389.9-95.8,390.7-97.9C1150.2,471.6,1132.4,399.6,1131.7,399z"/>
</svg>
