<?xml version="1.0" encoding="utf-8"?>
<!-- Generator: Adobe Illustrator 26.2.1, SVG Export Plug-In . SVG Version: 6.00 Build 0)  -->
<svg version="1.1" id="Layer_1" xmlns="http://www.w3.org/2000/svg" xmlns:xlink="http://www.w3.org/1999/xlink" x="0px" y="0px"
	 viewBox="0 0 1920 1080" style="enable-background:new 0 0 1920 1080;" xml:space="preserve">
<style type="text/css">
	.st0{fill:#FFFFFF;stroke:#000000;stroke-width:0.25;stroke-miterlimit:10;}
</style>
<path class="st0" d="M983.2,504.3c0.6,0,1.3,0,1.9,0c0.4,0.5,0,0,0.5,0.5c0,1.6,0.2,4.7,1,5.8c0-1.6,0-3.2,0-4.8c0.5,0,1,0,1.4,0
	c0.8,1.5,1,3.1,1,5.8c0.2,0,0.3,0,0.5,0c0.1-1.3,0.2-1.6,0.5-2.4c0.5,0.2,1,0.3,1.4,0.5c0.3,0.9,0.5,1.9,0.5,3.4
	c-1.4,1.5-0.7,3.2-0.5,5.8c9.1,5.5,11,8.3,8.6,20.6c-2.3,1.2-6.8,1-10.6,1c-6.3-0.5-6.8-1.8-10.6-1c0,5.4,0,10.9,0,16.3
	c0.9,3.8,2.6,6.9,2.9,11.5c-2.7,1.7-5.6,4-7.2,4.8c-2.7,1.4-9.7,4.4-22.1,3.8c0-0.2,0-0.3,0-0.5c-0.2,0-0.3,0-0.5,0
	c0.1-10.4-4.2-14.1-9.1-19.2c-1.1,0-2.2,0-3.4,0c-3.3,2.3-5.1,6.7-14.9,6.7c-7.7-6.5-5.7-10.1-3.8-15.8c0.6-1.9,2-4.9,2.4-7.2
	c0.3-1.8-0.6-3.1-1-4.3c-0.8-2.9-0.7-7.3-1-9.1c-0.2-1.3-0.4-2.3-0.5-4.3c0.8-0.3,1.2-0.4,2.4-0.5c0,0.2,0,0.3,0,0.5
	c0.2,0,0.3,0,0.5,0c0,1.7,0.2,2.6,0.5,3.8c0.2,0,0.3,0,0.5,0c-0.2-1.2,0.1-2.2,0-3.8c0.8-0.3,1,0.1,2.4,0c1.2-0.7,3.2-0.5,5.3-0.5
	c0,0.3,0,0.6,0,1c0.7,1.2-0.3,4.5,0.5,5.8c1.1-4.1,3.2-1.5,3.8-2.9c-0.4-3.3-2.3-4.9-2.4-7.7c2.1-2.7,2.7-6.5,6.2-7.7
	c2.1-1.6,7.6-1.1,9.6,0.5c2.9,2.3,2.9,7,6.7,8.6c4.2,1.8,11.1-0.1,16.3,1.4c5.1,1.5,9.4,3.2,13.4,5.8c0-0.3,0-0.6,0-1
	c-1.3-0.8-1.2-2.7-2.4-3.4c-3-1.6-7.7-2.5-8.2-7.2c2.7-0.7,3.4,0.9,5.3,1.9c0-1.1,0-2.2,0-3.4c-1.4-1.5-2.3-4.5-2.4-7.2
	c0.8,0,1.6,0,2.4,0c0.6,1.8,1.3,3.5,1.9,5.3c0.2,0,0.3,0,0.5,0c0-1.4,0-2.9,0-4.3C983.2,506.5,983.2,505.6,983.2,504.3z"/>
<path class="st0" d="M937.1,526.4c-1,0.7-1.2,5-2.9,7.7c-0.8,1.3-2.6,1.9-3.4,3.4c-0.9,1.9-0.8,5.4-1.4,7.2c0.2,0,0.3,0,0.5,0
	c0-0.2,0-0.3,0-0.5c0.2,0,0.8,0,1,0c-0.5-5.2,1.7-4.1,1.9-4.8c0.6-2.1,2.1-5.2,3.8-6.2c1.3-0.8,3.7-0.6,4.8-1.4
	C939.4,530.5,937.9,528.1,937.1,526.4z"/>
</svg>
