<?xml version="1.0" encoding="utf-8"?>
<!-- Generator: Adobe Illustrator 26.2.1, SVG Export Plug-In . SVG Version: 6.00 Build 0)  -->
<svg version="1.1" id="Layer_1" xmlns="http://www.w3.org/2000/svg" xmlns:xlink="http://www.w3.org/1999/xlink" x="0px" y="0px"
	 viewBox="0 0 1920 1080" style="enable-background:new 0 0 1920 1080;" xml:space="preserve">
<style type="text/css">
	.st0{fill:#FFFFFF;stroke:#000000;stroke-width:0.25;stroke-miterlimit:10;}
</style>
<path class="st0" d="M967.8,545.1c1,0,1.9,0,2.9,0c0.3,1.1,0.6,2.2,1,3.4c0.3,0,0.6,0,1,0c0-0.3,0-0.6,0-1c1.8-2.2,0.2-4.7-0.5-7.2
	c-0.7-0.8-1.8,0.1-2.4-1c-0.7-0.8-0.7-1.5-1-2.9c0.8-0.3,1.5-0.4,2.9-0.5c0.9,0.9,1.3,1,2.4,3.8c0.3,0,0.6,0,1,0
	c-0.5-3.2-0.9-4.1-0.5-11c0.5,0,1,0,1.4,0c0,0.5,0,1,0,1.4c0.3,0,0.6,0,1,0c0.5,0,0.9-0.2,2.4-0.5c-0.4,2.2-2,2.7-2.4,5.8
	c0.6,0.5,1,1.9,1.4,3.4c0.2,0.4,2.5,2,4.3,1.9c0-0.2,0-0.8,0-1c-1.3,0.2-1.7-0.1-1.4-4.8c1-1.2,1.5-1.6,4.3-1.4
	c1.2,0.6,1.5,3.2,2.4,3.8c0-0.8,0-3,0-3.8c-0.7-1.1-0.3-1.6,0-2.9c-1.2-0.3-1.7-0.7-2.4-1.4c-1.9,0.9-3.5,0.6-3.8,0
	c-0.2-0.5-1.3-0.2-1.9-0.5c0-0.3-0.1-0.9,0.5-1c0.5,0,0.5,0,1,0c0.2-0.8,0.3-1.6,0.5-2.4c0.5,0,1,0,1.4,0c0.8,0.7,2.4,1.2,3.8,1.9
	c2.6,1.3,5.9,2.9,7.7,3.8c-0.2-1.9,0.6-1.5,2.9-1.4c1.3,1.7,2.2,1.1,5.3,1c2.1,26-12.3,42.3-31.7,48c-18.7,5.5-38.1-2.9-46.6-14.4
	c-2.9-3.9-7.4-8.5-8.2-14.4c0.3,0,0.6,0,1,0c1.1,1.1,3.4,1,5.8,1c0.3-0.8-0.1-1.2,0-2.4c-1.3-0.5-0.5-2.7-0.5-4.3
	c0.3-0.7,2.4-0.9,3.8-1c1.3,1.7,1.5,4,0.5,6.2c0.3,0,0.6,0,1,0c1.8-0.6,1.5-2.6,1.4-5.8c0.6,0,1.3,0,1.9,0c0.4,1.2-0.4,2.4,1.4,2.4
	c0-0.3,0-0.6,0-1c0.9-1.4,0.1-2.6-0.5-3.8c-0.5,0-1,0-1.4,0c0.3-1.6,0.3-2.4,1-3.4c0.5-0.4,0.5-0.3,1.4-0.5c0.3,1,1.4,0.8,1.4,1.4
	c0,0.2,0,1.4,0,2.9c2.3,4.3,1.1,7.3-1,8.6c-1.6,1.1-1.9,2.7-1.4,2.9c0.6,0.9,1.1,1.3,1.9,1.9c-0.1-2.4-0.3-3.1,1.4-3.8
	c0.6-0.4,0.8-0.4,1.9-0.5c0.4,0.7,0.9,1.4,1.4,1.9c0-0.2,0-0.3,0-0.5c2.5-1.7,1.6-6.1-1.9-6.2c-0.3-1.8-0.6-1.6-1-3.4
	c0.8-0.3,1.5-0.4,2.9-0.5c0.9,1.4,2.1,2.7,2.9,4.3c0.5-1.8,1.9-1.9,4.3-1.4c0.4,1,1,2,1,4.3c0,0.4,0.8,0.6,1,1c0.3,0,0.6,0,1,0
	c0-0.3,0.5-0.2,0.5-0.5c-0.1-2.2-0.3-11.6,0-13.9l0.5-1.9c0-2.7,0-5.4,0-8.2c0.5-1.8,2.2-2.6,2.9-4.3c-3,0.8-0.6-2.2-2.4-3.4
	c-0.3-0.2-0.9-0.4-1.4-0.5c-0.1-3.3,0.5-5.5,1.4-7.7c1.7-0.8,2.5-1.4,5.3-1.4c0.7,1.4,2.4,3.7,2.9,3.8c0.6-0.9,0.5-2.7,0.5-4.3
	c-0.6-1.6-1.4-5.6-1-7.2c-1.2-2.4-3.5-3.6-4-6.4c0.3-0.9,1.5-2.6,4-2.8c1.6,2.3,5,4.2,5.8,7.2c0.3,1.2-2.6,2.7-2.4,3.4
	c1.2,3.6,1.6,5.8,1.9,10.6c-0.2,4-0.1,8.7,0.5,12.5c0.9,1.3,1.9,5.5,1.9,8.6C966,537.2,967.8,542.4,967.8,545.1z"/>
<path class="st0" d="M958.2,516.8c-0.2,0.5-0.3,1-0.5,1.4c0.3,0,0.6,0,1,0c0-0.3,0-0.6,0-1C958.6,517,958.8,517.1,958.2,516.8z"/>
<path class="st0" d="M975.5,541.8c0,0.4-0.1,0.8,0.4,0.9c0.1,0-0.1,1.9,0.1,2c0,0,0.8,0,0.9,0c0-0.2,0-2.7,0-2.9
	C975.9,541.8,976,541.8,975.5,541.8z"/>
<path class="st0" d="M952.5,545.6c-0.2,0.5-0.1,3.5,0,3.8c0.8-0.2,2.2,1.4,2.4,1.4c0-0.8-0.9-1.4-1.4-2.4
	C952.8,547.3,952.7,546,952.5,545.6z"/>
</svg>
