<?xml version="1.0" encoding="utf-8"?>
<!-- Generator: Adobe Illustrator 26.2.1, SVG Export Plug-In . SVG Version: 6.00 Build 0)  -->
<svg version="1.1" id="Layer_1" xmlns="http://www.w3.org/2000/svg" xmlns:xlink="http://www.w3.org/1999/xlink" x="0px" y="0px"
	 viewBox="0 0 1920 1080" style="enable-background:new 0 0 1920 1080;" xml:space="preserve">
<style type="text/css">
	.st0{fill:#FFFFFF;stroke:#000000;stroke-width:0.25;stroke-miterlimit:10;}
</style>
<path class="st0" d="M929.9,521.6c0.3-1.9,0.9-1.7,1.4-3.4c-0.2,0-0.3,0-0.5,0c0-0.2,0-0.3,0-0.5c-3.5,0.7-6.6,0.9-9.1,0.5
	c-2.4-3.9-3.7-7.1-2.9-13.4c2.5-2,5.3-6.8,11-5.3c1.8,0.5,3.9,1.9,5.8,2.4c7.9,2,10.6-4.2,18.7-1.9c8.6,2.4,15.5,11.4,18.7,19.2
	c0.5,3.2,1,6.4,1.4,9.6c1,2.6,4.3,14.2,3.4,17.8c-1.4,5.1-6.8,7.3-7.2,13c1.3,0.4,3.3,0.5,5.3,0.5c1.4-1.4,6.9-4.2,8.6-3.4
	c2.4,0.4,2.5,1.1,2.4,3.8c-4.2,3.2-6.8,9.4-13,10.6c-0.6-1.2-1.4-1.5-2.4-1c-4.5,1.3-9.2,3.4-13,5.8c-0.6,0.4-1.1,1.6-1.9,1.9
	c-5.8,2.2-13.9-0.4-18.2-1.4c-1.7-2.7-3.3-4.1-3.4-8.6c0.5-0.7,0.1-1.7,0.5-2.9c0.5-1.4,2.2-2.7,2.9-3.8c0.6-1.8,1.3-3.5,1.9-5.3
	c2.1-3.1,12.3-13.7,12-17.8c-0.2-3.2-3.7-2.9-6.2-3.8c-5.4-2-9.6-4.8-16.8-4.8c-0.7-2-1.6-1.7-1.9-4.3c0.5-0.7,0.8-2.4,1-3.4
	C928.9,521.6,929.4,521.6,929.9,521.6z"/>
<path class="st0" d="M940.9,516.3c-1.6,1-4.3,0.8-5.3,2.4c2.9,2.2,3,5.2,8.2,5.3c0.5,0.4,1.8,0.7,2.4,1c0-0.5,0-1,0-1.4
	C944.4,521.8,943.1,517.6,940.9,516.3z"/>
</svg>
