<?xml version="1.0" encoding="utf-8"?>
<!-- Generator: Adobe Illustrator 26.2.1, SVG Export Plug-In . SVG Version: 6.00 Build 0)  -->
<svg version="1.1" id="Layer_1" xmlns="http://www.w3.org/2000/svg" xmlns:xlink="http://www.w3.org/1999/xlink" x="0px" y="0px"
	 viewBox="0 0 1920 1080" style="enable-background:new 0 0 1920 1080;" xml:space="preserve">
<style type="text/css">
	.st0{fill:#FFFFFF;stroke:#000000;stroke-width:0.25;stroke-miterlimit:10;}
</style>
<path class="st0" d="M938.5,540.8c1.3-4.4,2.3-11.7,3.8-13.9c2.2-3.2,7.3-1.9,8.2-6.7c-1.9-2-4.1-1.1-5.3-1.9
	c-0.3-2.4-0.6-4.8-1-7.2c0.3,0,0.6,0,1,0c-0.1-1.7,0.8-5.7,1-7.2c1.7-1.1,3.5-1.7,5.8-1.9c12.8-1.4,8.3,14.7,13,17.3
	c2.2,1.2,5.3-1.7,10.1,1.9c3.8,2.9,5.7,8.6,11,10.6c4.1-4.3,9.7-6.9,11.5-13.4c0.9-2.6-2.6-6.3-3.4-9.1c0.2,0,0.3,0,0.5,0
	c2.5,2.3,5.6,6.8,7.2,10.6c-2.9,4.6-10.3,17.8-17.3,19.7c-11.3-6-11.7-8-12-7.2c-3.2,3.8,2.2,14.9,4.8,15.8
	c2.4-2.5,6.9-5.6,11.5-5.8c1.4,1.3,2.6,1.3,3.4,3.4c0.5,0.7,0.5,1.6,0.5,2.9c-1.5,2.9-4.4,6.4-5.8,9.1c0.3,0,0.6,0,1,0
	c5.3-1.4,10.6-2.9,15.8-4.3c0.7,1.5-2.8,9.4-10.1,17.8c-4.9,5.7-12.6,9.7-20.6,12c-15.1,4.4-36.3-3.2-41.8-11.5
	c3.2-0.3,18.8-4,19.7-5.8c-4.9-0.2-12.1-3.4-13.4-7.2c-0.8-1-0.9-2-1-3.8c3.9-4.2,3.9-3.6,12-3.4c1.1,0.8,2.5,0.9,4.3,1
	c0.4-0.6,0.4-0.5,1-1c-0.5-4.2-0.9-12.5-5.3-15.4c-2.4,5.2-4,13.1-11,12.5c-6.4-3.4-13.6-8.3-14.4-8.6c-2.9-1.2-5.5-0.4-6.2-3.8
	c0.7-1.2,1-9.8,2.8-12.9c0.4,0,0.7,0,1,0c0,1.8,0,3.5,0,5.3c-1.1,1.5-0.3,4.5,0,6.2C924.6,536.4,931.2,540.3,938.5,540.8z"/>
</svg>
