<?xml version="1.0" encoding="utf-8"?>
<!-- Generator: Adobe Illustrator 26.2.1, SVG Export Plug-In . SVG Version: 6.00 Build 0)  -->
<svg version="1.1" id="Layer_1" xmlns="http://www.w3.org/2000/svg" xmlns:xlink="http://www.w3.org/1999/xlink" x="0px" y="0px"
	 viewBox="0 0 1920 1080" style="enable-background:new 0 0 1920 1080;" xml:space="preserve">
<style type="text/css">
	.st0{fill:#FFFFFF;stroke:#000000;stroke-width:0.25;stroke-miterlimit:10;}
</style>
<path class="st0" d="M1079.1,410.3c31.7,3.6,51.5,37.5,39.4,70.6c-11.7,31.8-65.2,42.4-86.4,9.1c-0.3,0.2-0.6,0.3-1,0.5
	c-0.3,26.4-30.3,52.3-61.9,43.7c-13.5-3.7-22.6-12-28.3-18.7c0.2,14.2-6.5,20.5-10.6,29.8c36.2-7.3,55.7,18.9,60,43.2
	c2.8,15.5-6.7,38.8-17.3,44c-2.8,1.4-7.2,0.6-13.5,2.5c44.2-21.6,28.6-92.3-29.3-85c-23.4,3-46.3,39.5-27.8,68.6
	c5.4,8.4,14.5,15.9,25,19.2c4.6,0.8,9.3,1.6,13.9,2.4c-5.1,1-10.2,1.9-15.4,2.9c-19.4-4.2-41.4-30.9-35-59c2-9,7-14.8,10.1-22.1
	c-24.5,7.6-42.7-9.7-51.4-20.2c-0.2,0-0.3,0-0.5,0c-2.6,12.4-8.8,19.5-14.9,26.4c0,0.2,0,0.3,0,0.5c37.5-0.5,61,40,43.2,74.4
	c-2.9,5.6-7,13-12.5,15.8c-14.1,3.2-27.2,6.9-41.3,10.1c-23.6-4.3-47.8-32.6-38.4-64.3c3-10.1,8.4-16.2,13.9-23.5
	c-0.2-0.2-0.3-0.3-0.5-0.5c-18,0.2-34-11.3-40.8-22.6c-1.4-6.2-2.9-12.5-4.3-18.7c-1.1-4.3-3-8.2-3.4-12.5c-0.5-5.5,1-11.2,3.4-16.8
	c8.7-20.3,37.7-38.7,66.2-26.4c9.5,4.1,14.7,11.2,21.6,17.8c0.2,0,0.3,0,0.5,0c5.2-23.8,29.8-46.8,61.9-37.9
	c12.5,3.5,18.7,11.4,27.4,18.2c0-0.3,0-0.6,0-1c1.1-5.1,2.2-10.2,3.4-15.4c4.8-11.6,11.9-19.9,21.6-24.5c4.6-2.2,9.8-1.6,15.8-3.8
	c9.4-3.5,18.9-3.4,28.3,0.5c9.4,3.9,16,10.4,21.6,16.8c0.2,0,0.3,0,0.5,0c0.5-13.6,11.2-31.2,19.7-35
	C1054.5,416.4,1066.8,413.3,1079.1,410.3z"/>
<path class="st0" d="M1069.5,414.6c-4.5,1-9,1.9-13.4,2.9c-11.1,4.6-21,13.8-25.4,25c-12,29.7,12.9,67.9,45.6,62.9
	C1133.7,496.6,1130.6,416.8,1069.5,414.6z"/>
<path class="st0" d="M976.9,439.6c-11.1,0.9-29.8,9.1-37.4,28.8c-12.3,31.8,15.7,67.2,49,61.4C1042.2,520.5,1038.9,440,976.9,439.6z
	"/>
<path class="st0" d="M887.6,467.4c-3.8,0.8-7.7,1.6-11.5,2.4c-13.4,5.2-24,15.8-28.3,30.2c-0.8,2.8-1.9,8.3-1,11
	c2.5,7.5,2.7,12.7,3.6,18.9c2.2,14.4,26,30.7,43.9,28.2C951.5,550.2,948.4,466.9,887.6,467.4z"/>
<path class="st0" d="M795.9,485.2c-10.5,0.9-32.8,11-39.4,33.6c-8.3,28.5,18.7,61.1,47,56.6c27-4.2,41.6-22.6,41.3-43.2
	c-0.1-3.4-3.5-7.1-3.4-12c0-1.5,0.1-5.3-0.9-7.8C834.5,497,819.5,484.9,795.9,485.2z"/>
<path class="st0" d="M1047.4,512.5c36.5-3,66.5,33.5,51.4,70.6c-4.5,11.1-12.4,20.3-22.1,24c-2,0.7-9.9,2.1-13.4,3
	c-5.1,1.3-11.9,3.3-13,3.3c-33.6-0.7-54.9-35-46.6-64.8c4.1-14.7,14.9-26.6,28.3-32.2C1037.2,515.1,1042.3,513.8,1047.4,512.5z"/>
<path class="st0" d="M1134.3,515.4c44.8-2,46.9,56.7,9.1,62.4c-22.7,3.5-41.5-18.4-34.6-41.3
	C1113.1,522.7,1122.7,518.3,1134.3,515.4z"/>
<path class="st0" d="M1046.5,517.8c-16.8,3.5-31.5,12.3-37.4,32.2c-9.2,30.7,18.1,63.7,49.4,58.1
	C1112.7,598.4,1110.2,516,1046.5,517.8z"/>
<path class="st0" d="M1136.7,518.8c-8.1,0.7-20.7,7.7-24.5,20.6c-5.2,17.8,12.2,37.8,30.2,34.1
	C1174.9,566.8,1174.1,520.7,1136.7,518.8z"/>
<path class="st0" d="M830.9,573.5c-4.8,0.4-6.7,1.6-10.1,2.9c-13.2,5.1-23.5,11.1-29.3,25.9c-11.8,30.3,15.3,66.9,47.5,61.4
	C894.6,654.3,889.5,574.1,830.9,573.5z"/>
</svg>
