<?xml version="1.0" encoding="utf-8"?>
<!-- Generator: Adobe Illustrator 26.2.1, SVG Export Plug-In . SVG Version: 6.00 Build 0)  -->
<svg version="1.1" id="Layer_1" xmlns="http://www.w3.org/2000/svg" xmlns:xlink="http://www.w3.org/1999/xlink" x="0px" y="0px"
	 viewBox="0 0 1920 1080" style="enable-background:new 0 0 1920 1080;" xml:space="preserve">
<style type="text/css">
	.st0{fill:#FFFFFF;stroke:#000000;stroke-width:0.25;stroke-miterlimit:10;}
</style>
<path class="st0" d="M835.1,557.4c-0.5,0-1,0-1.4,0c0-0.2,0-0.3,0-0.5c-0.8-0.7-1-2.2-1.4-3.4c-0.2,0-0.3,0-0.5,0
	c-0.2,0.8-0.3,1.6-0.5,2.4c-2-0.4-1.7-1-2.9-1.9c0,0.6,0,1.3,0,1.9c0.2,0,0.3,0,0.5,0c0,0.8,0,1.6,0,2.4c-0.5,0-1,0-1.4,0
	c0-0.2,0-0.3,0-0.5c-0.2,0-0.3,0-0.5,0c0-0.5,0-1,0-1.4c-0.2,0-0.3,0-0.5,0c0,0.2,0,0.3,0,0.5c-0.8,0.7,0.2,0.1-0.5,1
	c-0.8,0.9-2.5,1.4-4.3,1.4c-0.5-0.5,0-0.2-1-0.5c0,0.3,0,0.6,0,1c-2.2,0.5-6.1,3.7-9.6,2.4c-1.1-0.8-2.2-1.6-3.4-2.4
	c0,0.2,0,0.3,0,0.5c0.9,0.8,1,2.1,1,3.8c-0.5,0-1,0-1.4,0c0-0.2,0-0.3,0-0.5c-0.2,0-0.3,0-0.5,0c0-0.5,0-1,0-1.4c-0.2,0-0.3,0-0.5,0
	c0,0.2,0,0.3,0,0.5c-1,1.1-1.9,2.2-2.9,3.4c-1.4,0-2.9,0-4.3,0c-0.3-0.6-0.6-1.3-1-1.9c-1,0.8-0.4,1.1-1,1.9c-0.2,0-0.3,0-0.5,0
	c-0.5,0.6-1,1.3-1.4,1.9c-0.3,0-0.6,0-1,0c-0.2,0.3-0.3,0.6-0.5,1c-1.1,0.5-1.3-0.6-1.9-0.5c0,0.2,0,0.3,0,0.5c-0.6,0-1.3,0-1.9,0
	c0,0.2,0,0.3,0,0.5c-0.3,0-0.6,0-1,0c0,0.2,0,0.3,0,0.5c-0.5,0-1,0-1.4,0c0,0.2,0,0.3,0,0.5c-0.7,0.2-2.4,0.2-2.4-0.5
	c-0.2,0-0.3,0-0.5,0c0,0.3,0,0.6,0,1c-0.6,0-1.3,0-1.9,0c-0.1-1.5-0.5-2.7-1-3.8c-0.3,0-0.6,0-1,0c-0.2,0.3-0.3,0.6-0.5,1
	c-0.2,0-0.3,0-0.5,0c0,0.2,0,0.3,0,0.5c0.2,0,0.3,0,0.5,0c0,1,0,1.9,0,2.9c-0.6-0.2-1.3-0.3-1.9-0.5c0-0.6,0-1.3,0-1.9
	c-0.2,0-0.3,0-0.5,0c0-0.2,0-0.3,0-0.5c0,0,0.7-0.5,0.5-1.4c-0.4-1.5-0.9-2-1-4.3c0.5-0.4,0.1,0.1,0.5-0.5c0.5,0.2,1,0.3,1.4,0.5
	c0.2,1,0.3,1.9,0.5,2.9c0.2,0,0.3,0,0.5,0c0.5-0.5,0-0.2,1-0.5c-0.2-1-0.3-1.9-0.5-2.9c0.5-0.4,0.1,0.1,0.5-0.5c0.5,0,1,0,1.4,0
	c0,0.5,0,1,0,1.4c0.2,0,0.3,0,0.5,0c0.9-1.6,3.5-2.7,5.8-2.9c0.5,0.9,0.7,0.8,1,1.9c-1.4,0.5-2.9,1-4.3,1.4c0,0.2,0,0.3,0,0.5
	c2-0.1,2.7-0.6,4.3,0c-0.3,1,0.1,0.4-0.5,1c0,0.2,0,0.3,0,0.5c-0.6,0-1.3,0-1.9,0c0,0.2,0,0.3,0,0.5c-0.5,0.2-1,0.3-1.4,0.5
	c0,0.2,0,0.3,0,0.5c0.2,0,0.3,0,0.5,0c0,0.5,0,1,0,1.4c0.2,0,0.3,0,0.5,0c0.8-0.9,4-2.1,4.8-1.4c0-0.3,0-0.6,0-1
	c-0.7-0.8-1-4.6-1-6.2c1.3-0.5,3.3-0.5,5.3-0.5c0.5,0.5,0,0.2,1,0.5c0,0.2,0,0.3,0,0.5c0.2,0,0.3,0,0.5,0c0,0.5,0,1,0,1.4
	c0.2,0,0.3,0,0.5,0c0.2-3.6,2.1-5.4,6.2-5.3c0.4,0.6,0.3,0.6,1,1c0-0.8,0-1.6,0-2.4c0.5,0,1,0,1.4,0c1,1.8,3,3.3,4.8,4.3
	c-0.6-1.9-1.3-3.8-1.9-5.8c0.5,0,1,0,1.4,0c0,0.2,0,0.3,0,0.5c1.3,1.1,2.4,4.2,2.4,6.7c2.2-0.4,2.5-1.1,2.4-3.8c-0.2,0-0.3,0-0.5,0
	c0-0.8,0-1.6,0-2.4c-0.2,0-0.3,0-0.5,0c-0.6,0.8-1,0.8-2.4,1c0-0.6,0-1.3,0-1.9c2.5-0.5,3.5-2.1,6.2-2.4c0.2,0.5,0.3,1,0.5,1.4
	c2.1-1.8,1.5-2.9,5.8-2.9c0.4,0.5-0.1,0.1,0.5,0.5c-0.3,1,0.1,0.4-0.5,1c0,0.2,0,0.3,0,0.5c-0.5-0.2-1-0.3-1.4-0.5
	c-0.2,0.3-0.3,0.6-0.5,1c-0.5,0.2-1,0.3-1.4,0.5c0,0.2,0,0.3,0,0.5c0.3,0,0.6,0,1,0c0.9-0.9,2.9-0.4,3.8,0c0-1.3,0-2.6,0-3.8
	c0.6,0,1.3,0,1.9,0c0.3,1.3,0.9,1.8,1.4,2.9c0.5-0.5,0.2,0,0.5-1c0.2,0,0.3,0,0.5,0c0-0.6,0-1.3,0-1.9c0.2,0,0.3,0,0.5,0
	c0-0.2,0-0.3,0-0.5c0.3,0,0.6,0,1,0c0.3,0.5,0.6,1,1,1.4c0.2,0,0.3,0,0.5,0c0,0.6,0,1.3,0,1.9c0.2,0,0.3,0,0.5,0
	C834.4,553.8,834.8,555.6,835.1,557.4z"/>
<path class="st0" d="M817.3,553.5c0.2,1.8,0.3,3.5,0.5,5.3c0.2,0,0.3,0,0.5,0c0-0.2,0-0.3,0-0.5c0.6,0,1.3,0,1.9,0
	c0.2-0.5,0.3-1,0.5-1.4c0.8,0.2,1.6,0.3,2.4,0.5c0-0.2,0-0.3,0-0.5c0.9-0.5,1.4-1.1,1.9-1.9c-0.7-0.3-0.8-0.4-1.9-0.5
	c0,0.2,0,0.3,0,0.5c-1.1,0-2.2,0-3.4,0c-0.4-0.5,0.1-0.1-0.5-0.5c0-0.5,0-1,0-1.4C818.6,553.2,818,553.4,817.3,553.5z"/>
<path class="st0" d="M802,558.3c-0.4,0.7-1.3,1.9-1.9,2.4c0,1,0,1.9,0,2.9c0.8,0.3,1.1,0.4,2.4,0.5c0.8-1,1-0.3,1.4-1.9
	c1.2-1.2,0-2.8-0.5-3.8C802.9,558.3,802.4,558.3,802,558.3z"/>
<path class="st0" d="M795.7,561.2c-0.6-0.2-1.3-0.3-1.9-0.5c0,0.2,0,0.3,0,0.5c-0.2,0-0.3,0-0.5,0c0,1.3,0,2.6,0,3.8
	c0.5,0.5,0.2,0,0.5,1c0.2,0,0.3,0,0.5,0c0-0.2,0-0.3,0-0.5c0.9-0.5,1.1-0.7,1.4-1.9c0.2,0,0.3,0,0.5,0
	C796,562.8,795.9,562,795.7,561.2z"/>
<path class="st0" d="M783.2,563.6c0.2,1.1,0.3,2.2,0.5,3.4c0.2,0,0.3,0,0.5,0c-0.2-1.1-0.3-2.2-0.5-3.4
	C783.6,563.6,783.4,563.6,783.2,563.6z"/>
<path class="st0" d="M1166.3,575.1c1.3,0.3,1.1,0.1,1.4,1.4c1,0.9-0.1,0.5,0.5,1.4c0.3,0.2,0.6,0.3,1,0.5c0.3,1.4,0.6,2.9,1,4.3
	c-0.2,0-0.3,0-0.5,0c-0.3,0.2-0.1,0.8-1,0.5c0-0.2,0-0.3,0-0.5c-2.2-0.4-3.2-1.9-4.8-2.9c0,0.5,0,1,0,1.4c0.2,0,0.3,0,0.5,0
	c0.2,1,0.3,1.9,0.5,2.9c-0.5,0.2-1,0.3-1.4,0.5c-0.6-2.7-1.3-5.4-1.9-8.2c0.5-0.4,0.1,0.1,0.5-0.5c0.3,0,0.6,0,1,0
	c0.9,1.6,3.2,3.9,4.8,4.8c0-0.8,0-1.6,0-2.4C1166.8,577.7,1166.4,576.7,1166.3,575.1z"/>
<path class="st0" d="M1154.8,585.7c-0.2-0.8-0.3-1.6-0.5-2.4c-0.2,0-0.3,0-0.5,0c-0.3-1.1,0.4-1.3,0.5-1.4c1-2.9,1.1-4.7,4.8-4.8
	c0.6,0.8,1.4,1,1.9,1.9c0.5,0.4,1.4,2.5,1,3.8c-0.2,0-0.3,0-0.5,0c0,0.5,0,1,0,1.4c-0.5,0.3-1,0.6-1.4,1c0,0.2,0,0.3,0,0.5
	c-0.3,0-0.6,0-1,0c0,0.2,0,0.3,0,0.5C1157.6,586.7,1155.7,585.9,1154.8,585.7z"/>
<path class="st0" d="M1152.4,579.9c-0.5,0-1,0-1.4,0c0,0.2,0,0.3,0,0.5c-0.7,0.8-0.5,2.8-0.5,4.3c0.5,0.5,0.2,0,0.5,1
	c1.9-0.2,1.4-0.5,2.9,0c0,0.2,0,0.3,0,0.5c-0.2,0-0.3,0-0.5,0c-1,1.1-1.1,0.4-2.4,1c-1.3,0.6-1.3,1.2-3.4,1.4
	c-0.2-0.3-0.3-0.6-0.5-1c2.2-0.4,2.5-1.1,2.4-3.8c-0.2,0-0.3,0-0.5,0c0-1,0-1.9,0-2.9c-0.2,0-0.3,0-0.5,0c0,0.2,0,0.3,0,0.5
	c-0.8,0.2-1.6,0.3-2.4,0.5c0-0.5,0-1,0-1.4c1.9-0.6,3.8-1.3,5.8-1.9C1152,579,1152.2,579.4,1152.4,579.9z"/>
<path class="st0" d="M1156.7,579c-0.2,0.5-0.3,1-0.5,1.4c-0.2,0-0.3,0-0.5,0c0,0.3,0,0.6,0,1c-0.2,0-0.3,0-0.5,0c0,0.8,0,1.6,0,2.4
	c1.5,0.8,0.9,0.9,3.4,1c0.5-0.5,0-0.2,1-0.5c0.3-1.5,0.8-1.7,1-3.4c-0.2,0-0.3,0-0.5,0c0-0.5,0-1,0-1.4c-0.2,0-0.3,0-0.5,0
	c-0.4-0.5-0.6-0.5-1-1C1158,578.6,1157.3,578.8,1156.7,579z"/>
<path class="st0" d="M1145.6,580.9c0,0.3,0,0.6,0,1c-1,0.2-1.9,0.3-2.9,0.5c0.3,2.4,0.6,4.8,1,7.2c-0.5,0-1,0-1.4,0
	c-0.3-2.1-0.6-4.2-1-6.2c-1,0.2-1.9,0.3-2.9,0.5c0-0.5,0-1,0-1.4c0.2,0,0.3,0,0.5,0C1139.8,581.4,1143.6,580.9,1145.6,580.9z"/>
<path class="st0" d="M1138,587.6c0.5,0,1,0,1.4,0c-0.4,1.9-1.5,3.4-3.4,3.8c0,0.2,0,0.3,0,0.5c-0.8,0.5-3.3-0.9-3.4-1
	c0-1.3,0-2.6,0-3.8c0.8-0.7,1.2-2.1,1.4-3.4c1-0.6,1-1.1,2.4-1.4c0.5,1,0.8,0.8,1,2.4c-0.5,0.4-0.1-0.1-0.5,0.5c-0.2,0-0.3,0-0.5,0
	c0-0.5,0-1,0-1.4c-0.2,0-0.3,0-0.5,0c0,0.2,0,0.3,0,0.5c-0.2,0-0.3,0-0.5,0c-0.6,1.2-2.2,3.8-1.4,4.8c0.2,0.5,0.3,1,0.5,1.4
	c1-0.3,0.4,0.1,1-0.5C1137,589.7,1137.6,589.1,1138,587.6z"/>
<path class="st0" d="M1083.7,585.2c-0.3,0-0.6,0-1,0c-0.9,1.3-1.9,1.1-2.4,2.9c0.2,0,0.3,0,0.5,0c0.9-1.1,1.7-1.4,3.8-1.4
	c0,0.5,0,1,0,1.4c-0.3,0-0.6,0-1,0c-0.5,0.6-1.7,1.5-2.4,1.9c0.2,0.5,0.3,1,0.5,1.4c2.6-0.6,3-2.5,5.8-2.9c0,0.2,0,0.3,0,0.5
	c0.2,0,0.3,0,0.5,0c0,0.3,0,0.6,0,1c-2.1,1.2-3.3,3.5-6.2,3.8c0,0.2,0,0.3,0,0.5c-0.5-0.2-1-0.3-1.4-0.5c-1-2.5-2.3-4.5-2.4-7.7
	c2.3-0.6,2.4-2.5,5.3-2.9c0,0.2,0,0.3,0,0.5c0.2,0,0.3,0,0.5,0C1083.7,584.2,1083.7,584.7,1083.7,585.2z"/>
<path class="st0" d="M1130.8,588.1c0.3,0,0.6,0,1,0c0.1,2.2,0.8,2.9,1.4,4.3c-0.5,0-1,0-1.4,0c0-0.3,0-0.6,0-1
	c-0.6-0.5-1.1-1.2-1.4-1.9c-0.5,0.4-0.1-0.1-0.5,0.5c-1.6,0.7-1.9,0.9-1.9,3.4c-0.3,0-0.6,0-1,0c-0.1-3.6,0.4-6.6,1.4-9.1
	c0.3,0.2,0.6,0.3,1,0.5C1129.8,585.9,1130.4,586.6,1130.8,588.1z"/>
<path class="st0" d="M1074.6,589.5c0.1,1.2,0.5,2.8,1,3.8c0.2,0,0.3,0,0.5,0c0,0.3,0,0.6,0,1c0.2,0,0.3,0,0.5,0c0,0.8,0,1.6,0,2.4
	c-0.6,0-1.3,0-1.9,0c-0.6-2.1-1.3-4.2-1.9-6.2c-0.2,0-0.3,0-0.5,0c0,0.2,0,0.3,0,0.5c-0.8,0.2-1.6,0.3-2.4,0.5c0-0.2,0-0.3,0-0.5
	c-0.5-0.5-0.2,0-0.5-1c2.3-1.2,4.2-2.8,7.7-2.9c0,0.2,0,0.3,0,0.5c0.2,0,0.3,0,0.5,0c-0.2,0.3-0.3,0.6-0.5,1
	C1076.1,589,1075.7,589.3,1074.6,589.5z"/>
<path class="st0" d="M1129.8,589c-0.2-0.6-0.3-1.3-0.5-1.9c-0.5,0.4-0.1-0.1-0.5,0.5c-0.2,0-0.3,0-0.5,0c0,0.6,0,1.3,0,1.9
	c0.2,0,0.3,0,0.5,0C1129.4,589,1128.8,589.3,1129.8,589z"/>
<path class="st0" d="M1066.4,590.5c0.6,0.2,1.3,0.3,1.9,0.5c0.4,1.6,1,1.2,1.4,2.9c2.3,0.7,0.5,0.4,1.4,1.9c0.2,0,0.3,0,0.5,0
	c0.4,0.6,0.4,0.9,1,1.4c-0.3,1,0.1,0.4-0.5,1c0,0.2,0,0.3,0,0.5c-0.6-0.2-1.3-0.3-1.9-0.5c0-0.3,0-0.6,0-1c-0.6-0.4-0.6-0.3-1-1
	c-0.9,0.5-0.8,0.7-1.9,1c-0.2,1.1-0.3,2.2-0.5,3.4c-0.2,0-0.3,0-0.5,0c-0.5-0.5,0-0.2-1-0.5c0-0.5,0-1,0-1.4c-0.2,0-0.3,0-0.5,0
	c-0.6,2-3.7,3.6-6.2,3.8c-0.2-0.4-1-1-1-1c0-1.1,0-2.2,0-3.4c-0.2,0-0.3,0-0.5,0c0,2.8-0.7,4.3-2.9,4.8c-1.6,1.7-3.8,0.4-5.8,0
	c-0.2-0.5-0.3-1-0.5-1.4c-0.5,0.4-0.1-0.1-0.5,0.5c-0.5,0.5-0.2,0-0.5,1c-0.5,0.2-1,0.3-1.4,0.5c0,0.2,0,0.3,0,0.5c-0.3,0-0.6,0-1,0
	c0,0.2,0,0.3,0,0.5c-1.2,0.4-3.9-0.2-3.8-1c-0.2,0-0.3,0-0.5,0c0,0.3,0,0.6,0,1c-2.6,0.3-5.1,0.6-7.7,1c0-0.2,0-0.3,0-0.5
	c-0.2,0-0.3,0-0.5,0c0-0.5,0-1,0-1.4c0.8,0,1.6,0,2.4,0c0.8-1.6,1-2.1,1-4.8c0.5-0.4,0.1,0.1,0.5-0.5c-1,0-1.9,0-2.9,0
	c0-0.2,0-0.3,0-0.5c-0.5-0.5-0.2,0-0.5-1c0.9-0.3,1.9-0.5,3.4-0.5c0-0.2,0-0.3,0-0.5c1.3,0,2.6,0,3.8,0c0,0.2,0,0.3,0,0.5
	c0.2,0,0.3,0,0.5,0c-0.3,1,0.1,0.4-0.5,1c0,0.2,0,0.3,0,0.5c-0.6,0-1.3,0-1.9,0c-0.2,1.8-0.3,3.5-0.5,5.3c1.1-0.2,0.9-0.5,1-0.5
	c0.8-0.3,1.7,0.6,1.9,0.5c0.2-0.5,0.3-1,0.5-1.4c1,0.3,1.9,0.6,2.9,1c0-0.2,0-0.3,0-0.5c1.4-0.3,1.6-0.5,1.9-1.9c-1.6,0-3.2,0-4.8,0
	c-0.3-0.6-0.5-1-1-1.4c0.2-0.5,0.3-1,0.5-1.4c2.8-1.6,3.3-3,6.7-1.4c-0.3,1,0.1,0.4-0.5,1c0,0.2,0,0.3,0,0.5
	c-0.6-0.2-1.3-0.3-1.9-0.5c0,0.2,0,0.3,0,0.5c-0.6,0.2-1.3,0.3-1.9,0.5c0,0.2,0,0.3,0,0.5c1.4,0,2.9,0,4.3,0c0.2,0.3,0.3,0.6,0.5,1
	c0.2,0,0.3,0,0.5,0c0-0.2,0-0.3,0-0.5c0.9-0.9,0.4-1,1-1.9c0.2,0,0.3,0,0.5,0c0-0.3,0-0.6,0-1c0.5-0.2,1-0.3,1.4-0.5
	c0.2-0.3,0.3-0.6,0.5-1c1.3,0,2.6,0,3.8,0c0.6,1,1.1,1,1.4,2.4c0.2,0,0.3,0,0.5,0c0-1,0-1.9,0-2.9c0.2,0,0.3,0,0.5,0
	c0-0.2,0-0.3,0-0.5c0.5,0,1,0,1.4,0c0,0.2,0,0.3,0,0.5c0.2,0,0.3,0,0.5,0c0,2.2-0.1,4.8,0.5,6.2c1.8-0.8,2.3-2.3,4.8-2.4
	c0,0.2,0,0.3,0,0.5c0.2,0,0.3,0,0.5,0c0-1,0-1.9,0-2.9C1066,594.7,1066.4,591.5,1066.4,590.5z"/>
<path class="st0" d="M1067.4,593.8c0,0.5,0,1,0,1.4c0.2,0,0.3,0,0.5,0c0-0.5,0-1,0-1.4C1067.7,593.8,1067.6,593.8,1067.4,593.8z"/>
<path class="st0" d="M1050.6,601.5c0.5,0,1,0,1.4,0c0,0.2,0,0.3,0,0.5c0.8-0.3,1.6-0.6,2.4-1c0.5-1.2,0.9-1.5,1-3.4
	c-1.3-1.1-0.3-1.3-2.9-1.4c-0.7,1.1-2.7,2.4-2.4,4.3c0.2,0,0.3,0,0.5,0C1050.6,600.9,1050.6,601.2,1050.6,601.5z"/>
</svg>
