<?xml version="1.0" encoding="utf-8"?>
<!-- Generator: Adobe Illustrator 26.2.1, SVG Export Plug-In . SVG Version: 6.00 Build 0)  -->
<svg version="1.1" id="Layer_1" xmlns="http://www.w3.org/2000/svg" xmlns:xlink="http://www.w3.org/1999/xlink" x="0px" y="0px"
	 viewBox="0 0 1920 1080" style="enable-background:new 0 0 1920 1080;" xml:space="preserve">
<style type="text/css">
	.st0{fill:#FFFFFF;stroke:#000000;stroke-width:0.25;stroke-miterlimit:10;}
</style>
<path class="st0" d="M1074.1,471.4c0,0.5,0,1,0,1.4c-1.7,0.1-2.3,0.6-3.8,1c0,0.2,0,0.3,0,0.5c-0.2,0-0.3,0-0.5,0c0,0.5,0,1,0,1.4
	c1.4-0.3,2.9-0.6,4.3-1c0,0.2,0,0.3,0,0.5c0.2,0,0.3,0,0.5,0c-0.5,0.5,0,0.2-1,0.5c-1.9,1.7-3.2-0.4-3.4,3.4
	c0.8,0.3,1.1,0.4,2.4,0.5c0.9-1,2.4-1.4,4.3-1.4c-0.3,1.3-0.1,1.1-1.4,1.4c-1,1-5.7,2.2-7.7,2.4c-0.3-1.4-0.6-2.9-1-4.3
	c-0.3,0-0.6,0-1,0c-0.2,1.1-0.3,2.2-0.5,3.4c-0.2,0-0.3,0-0.5,0c-0.5-0.5,0-0.2-1-0.5c-0.3-1.3-0.6-1.1-1-2.4c-0.2,0-0.3,0-0.5,0
	c0.1,2.5,0.7,3.9,0,5.8c-0.5-0.4-0.1,0.1-0.5-0.5c-0.7-0.8-1.4-7.4-1.4-9.1c0.5,0,1,0,1.4,0c0.7,1.3,1.5,1.6,1.9,3.4
	c0.3,0,0.6,0,1,0c0.2-1.4,0.3-2.9,0.5-4.3c0.5,0.2,1,0.3,1.4,0.5c0.6,1.8,1.3,3.5,1.9,5.3c-0.3-1.9-0.6-3.8-1-5.8
	C1070.4,472.8,1071,471.6,1074.1,471.4z"/>
<path class="st0" d="M1055.9,475.8c0.5,0,1,0,1.4,0c0.3,1.8,1.1,3.4,2.9,3.8c-0.2,0.5-0.3,1-0.5,1.4c0.6,1.3,1.2,1.3,1.4,3.4
	c-2-0.6-1.2-1.3-2.4-2.4c0-0.2,0-0.3,0-0.5c-0.5,0-1,0-1.4,0c-0.5,0.5,0,0.2-1,0.5c-0.3,1.1-0.6,2.2-1,3.4c-0.3,0-0.6,0-1,0
	C1054.4,481.3,1055.5,479.1,1055.9,475.8z"/>
<path class="st0" d="M1054,483c0,0.5,0,1,0,1.4c-0.2,0-0.3,0-0.5,0c-0.6,0.8-3.9,3.5-5.8,2.9c-0.3-0.1-0.2-1.3-1.4-1
	c-0.3,0.5-0.6,1-1,1.4c-2.2,1.5-2.5,1.2-5.3,1c0.2-0.8,0.3-1.6,0.5-2.4c-0.2,0-0.3,0-0.5,0c-0.6-2-0.7-4-1.4-5.8c0.2,0,0.3,0,0.5,0
	c0-0.2,0-0.3,0-0.5c0.2,0,0.3,0,0.5,0c1-1,2.8-1,4.8-1c0.2,0.4,1,1,1,1c0.4,0.8-0.1,1.7-0.5,1.9c0,0.2,0,0.3,0,0.5c0.3,0,0.6,0,1,0
	c0.4,0.4,0.4,0.6,1,1c0-0.2,0-0.3,0-0.5c-1-1-0.4-3.8,0-4.8c1,0.3,0.4-0.1,1,0.5c0.2,0,0.3,0,0.5,0c1,1.7-0.8,5.3,1,7.2
	C1050,484.8,1052.4,483.3,1054,483z"/>
<path class="st0" d="M1056.4,480.6c0.5-0.2,1-0.3,1.4-0.5c0-0.2,0-0.3,0-0.5c-0.2,0-0.3,0-0.5,0c-0.2-0.5-0.3-1-0.5-1.4
	c-0.2,0-0.3,0-0.5,0C1056.4,479,1056.4,479.8,1056.4,480.6z"/>
<path class="st0" d="M1040.5,481c0.2,0.8,0.3,1.6,0.5,2.4c1.8-0.3,2.7-0.8,2.9-2.9C1042.3,480.6,1041.7,480.8,1040.5,481z"/>
<path class="st0" d="M1042,487.3c2.3-0.1,1.6-0.5,3.4-1c0.2-0.6,0.3-1.3,0.5-1.9c-0.5-0.2-1-0.3-1.4-0.5c0-0.2,0-0.3,0-0.5
	c-0.2,0-0.3,0-0.5,0c0,0.2,0,0.3,0,0.5c-1.7,0.3-2.2,0.5-2.4,2.4C1042,486.9,1041.7,486.3,1042,487.3z"/>
<path class="st0" d="M1013.6,517.5c0,0.5,0,1,0,1.4c-0.2,0-0.3,0-0.5,0c-1.2,1.5-3.2,2.8-5.8,2.9c-0.7-1.3-1-2-1-4.3
	c-0.7-0.8-0.5-2.8-0.5-4.3c0.5-0.4,0.1,0.1,0.5-0.5c1,0.3,0.4-0.1,1,0.5c0.2,0,0.3,0,0.5,0c1,1.7-0.8,5.3,1,7.2
	C1009.7,519.3,1012,517.9,1013.6,517.5z"/>
<path class="st0" d="M1001.2,514.2c0.5,0,1,0,1.4,0c0.3,1.8,1.1,3.4,2.9,3.8c0,2.4,0.7,2.7,1,4.8c-2-0.6-1.2-1.3-2.4-2.4
	c0-0.2,0-0.3,0-0.5c-0.5,0-1,0-1.4,0c-0.5,0.5,0,0.2-1,0.5c-0.3,1.1-0.6,2.2-1,3.4c-3.2,0.3-5.2,2.2-8.2,2.9c0-0.5,0-1,0-1.4
	c2.2-0.4,2.5-1.1,2.4-3.8c-0.2,0-0.3,0-0.5,0c0-1,0-1.9,0-2.9c-1.1,0.2-2.2,0.3-3.4,0.5c0-0.5,0-1,0-1.4c2.9-0.3,3.4-1.8,6.7-1.9
	c0,0.5,0,1,0,1.4c-0.5,0-1,0-1.4,0c0,0.2,0,0.3,0,0.5c-0.2,0-0.3,0-0.5,0c0,1.1,0,2.2,0,3.4c0.2,0,0.3,0,0.5,0c0,0.8,0,1.6,0,2.4
	c1.1-0.2,2.2-0.3,3.4-0.5C999.7,519.3,1000.8,517.2,1001.2,514.2z"/>
<path class="st0" d="M1003.1,519c-0.2-1.1-0.6-1.5-1-2.4c-0.2,0-0.3,0-0.5,0c0,1,0,1.9,0,2.9c0.2,0,0.3,0,0.5,0
	C1002.7,518.9,1002.1,519.2,1003.1,519z"/>
<path class="st0" d="M986.3,527.6c-0.5,0.2-1,0.3-1.4,0.5c0-0.3,0-0.6,0-1c-0.2,0-0.3,0-0.5,0c-2.3,1-3.9,2.3-7.2,2.4
	c-0.5-2.7-1-5.4-1.4-8.2c2.5-0.5,3.1-1.8,6.2-1.9c0,0.5,0,1,0,1.4c-1.7,0.1-2.3,0.6-3.8,1c0,0.2,0,0.3,0,0.5c-0.2,0-0.3,0-0.5,0
	c0,0.5,0,1,0,1.4c1.4-0.3,2.9-0.6,4.3-1c0,0.2,0,0.3,0,0.5c0.2,0,0.3,0,0.5,0c-0.5,0.5,0,0.2-1,0.5c-0.6,0.6-2.3,1.2-3.4,1.4
	c0,0.6,0,1.3,0,1.9c0.8,0.3,1.1,0.4,2.4,0.5c0.8-0.9,2.2-1.3,3.8-1.4c-0.4-2.4-1.3-4.5-1.4-7.2c0.5-0.4,0.1,0.1,0.5-0.5
	c0.5,0.2,1,0.3,1.4,0.5c0,0.3,0,0.6,0,1c1.8,1,2.9,2.8,4.8,3.8c0-0.6,0-1.3,0-1.9c-0.5-1.4-1-2.9-1.4-4.3c0.2,0,0.3,0,0.5,0
	c0-0.2,0-0.3,0-0.5c0.3,0.2,0.6,0.3,1,0.5c0.6,1.5,2.6,7.7,1.9,8.6c-0.3,0.2-0.1,0.8-1,0.5c0-0.2,0-0.3,0-0.5
	c-2.6-0.5-3.4-2.2-5.3-3.4c0,0.6,0,1.3,0,1.9c0.2,0,0.3,0,0.5,0C986,525.7,986.1,526.6,986.3,527.6z"/>
<path class="st0" d="M901.8,525.2c0,1.7-0.1,3.3-0.5,4.3c-0.5-0.4-0.1,0.1-0.5-0.5c-0.9-1.1-0.4-2.8-1-4.3c-0.2,0-0.3,0-0.5,0
	c0-0.6,0-1.3,0-1.9c0-0.1-1.1-0.9-1.4-1.4c0.5-0.3,1.4-1.4,1.4-1.4c0.5,0,1,0,1.4,0c0-0.2,0-0.3,0-0.5c0.5,0,1,0,1.4,0
	c1.9-0.6,3-0.7,3.4,1.9c-0.8,0.7-1.2,1.7-1.4,2.9c1.2,0.7,2.5,1.8,2.9,3.4c-0.2,0-0.3,0-0.5,0c0,0.2,0,0.3,0,0.5c-0.3,0-0.6,0-1,0
	C904.9,526.7,903.8,525.4,901.8,525.2z"/>
<path class="st0" d="M900.8,523.8c0.3,0,0.6,0,1,0c1-1.2,1.7-0.8,1.9-2.9c-0.5-0.4-0.1,0.1-0.5-0.5c-1,0.5-1.9,1-2.9,1.4
	C900.6,522.6,900.7,522.6,900.8,523.8z"/>
<path class="st0" d="M894.1,520.9c0.5,0,1,0,1.4,0c0.3,1.8,1.1,3.4,2.9,3.8c-0.2,0.5-0.3,1-0.5,1.4c0.6,1.3,1.2,1.3,1.4,3.4
	c-2-0.6-1.2-1.3-2.4-2.4c0-0.2,0-0.3,0-0.5c-0.5,0-1,0-1.4,0c-0.5,0.5,0,0.2-1,0.5c-0.3,1.1-0.6,2.2-1,3.4c-0.3,0-0.6,0-1,0
	c0-0.2,0-0.3,0-0.5c-1.8,0.6-3.5,1.3-5.3,1.9c0,0.2,0,0.3,0,0.5c-0.8,0-1.6,0-2.4,0c-0.5-2.7-1-5.4-1.4-8.2c2.5-0.5,3.1-1.8,6.2-1.9
	c0,0.5,0,1,0,1.4c-1.7,0.1-2.3,0.6-3.8,1c-0.4,0.5,0.1,0.1-0.5,0.5c0,0.5,0,1,0,1.4c1.4-0.3,2.9-0.6,4.3-1c0.4,0.5-0.1,0.1,0.5,0.5
	c-0.5,0.5,0,0.2-1,0.5c-1.9,1.7-3.2-0.4-3.4,3.4c0.8,0.3,1.1,0.4,2.4,0.5c0.9-1,2.4-1.4,4.3-1.4
	C892.7,525.8,893.8,523.8,894.1,520.9z"/>
<path class="st0" d="M970,531.4c-0.5-3-1-6.1-1.4-9.1c3.5-0.5,7.1-0.9,7.2,3.4c0.2,0,0.3,0,0.5,0c0,0.3-0.4,0.9-0.5,1.9
	c-0.2,0-0.3,0-0.5,0c-0.2,0.5-0.3,1-0.5,1.4c-0.2,0-0.3,0-0.5,0c-0.2,0.3-0.3,0.6-0.5,1c-0.3,0-0.6,0-1,0c-0.3,0.5-0.6,1-1,1.4
	C971.2,531.4,970.6,531.4,970,531.4z"/>
<path class="st0" d="M894.6,525.7c0.5-0.2,1-0.3,1.4-0.5c-0.4-0.5,0.1-0.1-0.5-0.5c-0.2-0.5-0.3-1-0.5-1.4c-0.2,0-0.3,0-0.5,0
	C894.6,524.1,894.6,524.9,894.6,525.7z"/>
<path class="st0" d="M970.4,523.3c0.3,2.1,0.6,4.2,1,6.2c0.2,0,0.3,0,0.5,0c0.5-0.5,0-0.2,1-0.5c0.8-1.7,1.4-2.1,1.4-4.8
	C973.1,523.6,972.6,523.3,970.4,523.3z"/>
<path class="st0" d="M879.7,534.3c-0.5-0.2-1-0.3-1.4-0.5c0-1.5-0.1-2.3-0.5-3.4c-0.2,0-0.3,0-0.5,0c0.1-0.6,0.9-1.3,0.5-2.4
	c-0.2,0-0.3,0-0.5,0c-0.4-0.7-0.3-0.8-0.5-1.9c1.7-0.4,4.8-2.6,5.8-1.9c0.2,0,0.3,0,0.5,0c-0.2,0.3-0.3,0.6-0.5,1
	c-2.3,0.8-3.4,0.5-3.4,3.8c0.2,0,0.3,0,0.5,0c0.6-0.6,2.3-1.2,3.4-1.4c0.4,0.5-0.1,0.1,0.5,0.5c-0.4,0.5,0.1,0.1-0.5,0.5
	c-0.9,1-2.5,1.4-3.8,1.9C879.7,531.6,879.7,532.6,879.7,534.3z"/>
<path class="st0" d="M949.3,605.4c0.5,0.2,1,0.3,1.4,0.5c0-0.2,0-0.3,0-0.5c0.2,0,0.3,0,0.5,0c0-0.5,0-1,0-1.4c0.2,0,0.3,0,0.5,0
	c0.2-0.5,0.3-1,0.5-1.4c0.5,0,1,0,1.4,0c-0.4,2-1.3,2.4-1.4,4.8c0.9,0.4,1.3,0.7,2.4,1c0.6-1.8,1.3-3.5,1.9-5.3
	c0.5,0.2,1,0.3,1.4,0.5c-0.3,1-0.6,1.9-1,2.9c-0.2,0-0.3,0-0.5,0c-1,2.2-0.3,3.7-2.9,4.3c-0.9-1.3-2.1-1.5-3.4-2.4
	c-0.2-0.3-0.3-0.6-0.5-1c-0.6-0.4-2-0.4-2.4-1c0-0.3,0-0.6,0-1c0.5-1.4,1-2.9,1.4-4.3c0.9-0.5,0.8-0.7,1.9-1c0,0.2,0,0.3,0,0.5
	c0.2,0,0.3,0,0.5,0C950.5,602.1,949.7,603.4,949.3,605.4z"/>
<path class="st0" d="M951.7,615c0,0.3,0,0.6,0,1c-0.8-0.2-1.6-0.3-2.4-0.5c0-0.2,0-0.3,0-0.5c-0.3,0-0.6,0-1,0
	c-0.2-0.3-0.3-0.6-0.5-1c-0.6-0.2-1.3-0.3-1.9-0.5c-0.2-0.3-0.3-0.6-0.5-1c-0.6,0-1.3,0-1.9,0c0-0.2,0-0.3,0-0.5c-0.2,0-0.3,0-0.5,0
	c0.3-0.8,0.4-1.1,0.5-2.4c1.6-1.1,1.3-2.6,3.8-2.9c0,0.2,0,0.3,0,0.5c0.5,0.2,1,0.3,1.4,0.5c1.2,1.7,0.6,3.6,0.5,5.8
	C950.3,614.1,950.4,614.6,951.7,615z"/>
<path class="st0" d="M945.5,611.1c1.3,0.3,1.8,0.9,2.9,1.4c0-0.8,0-1.6,0-2.4c-0.5-0.4-0.7-0.8-1-1.4c-0.3,0-0.6,0-1,0
	C945.9,609.7,945.7,609.6,945.5,611.1z"/>
<path class="st0" d="M942.1,614c2.6,0,3.5,0.6,5.3,1c1.1,2,1.9,2.4,1.9,5.8c-1.3,1.2-0.7,2.3-2.9,2.9c-1.8,1.7-3.5-0.6-4.3-1.4
	c-0.3-0.2-0.6-0.3-1-0.5c0-0.3,0-0.6,0-1c-0.2,0-0.3,0-0.5,0c0-0.3,0-0.6,0-1c-0.2,0-0.3,0-0.5,0c0.2-1.6,0.3-3.2,0.5-4.8
	C941.3,614.7,941.7,614.5,942.1,614z"/>
<path class="st0" d="M942.1,615.9c-0.2,1-0.3,1.9-0.5,2.9c0.2,0,0.3,0,0.5,0c0.2,0.8,0.3,1.6,0.5,2.4c0.7,0.4,1.5,0.9,1.9,1.4
	c1-0.3,0.4,0.1,1-0.5c2.1-0.5,2-1.7,1.9-4.3c-1.1-0.9-0.6-1.4-2.4-1.9c0-0.2,0-0.3,0-0.5C944,615.6,943.1,615.8,942.1,615.9z"/>
<path class="st0" d="M937.3,620.7c1,0.3,1.9,0.6,2.9,1c0.2,0.3,0.3,0.6,0.5,1c0.6,0.2,1.3,0.3,1.9,0.5c0.2,0.3,0.3,0.6,0.5,1
	c0.3,0,0.6,0,1,0c0,0.2,0,0.3,0,0.5c0.3,0,0.6,0,1,0c0,0.2,0,0.3,0,0.5c0.2,0,0.3,0,0.5,0c0,0.2,0,0.3,0,0.5c0.2,0,0.3,0,0.5,0
	c0,0.3,0,0.6,0,1c-0.2,0-0.3,0-0.5,0c0,0.2,0,0.3,0,0.5c-1.4-0.8-2.9-1.6-4.3-2.4c-0.3,1-0.6,1.9-1,2.9c1.8,0.3,2.9,1.1,3.4,2.9
	c-0.2,0-0.3,0-0.5,0c0,0.2,0,0.3,0,0.5c-0.5-0.2-1-0.3-1.4-0.5c-0.2-0.3-0.3-0.6-0.5-1c-0.6-0.2-1.3-0.3-1.9-0.5
	c-0.2-0.3-0.3-0.6-0.5-1c-0.6-0.2-1.3-0.3-1.9-0.5c0-0.2,0-0.3,0-0.5c-0.5-0.2-1-0.3-1.4-0.5c0-0.6,0-1.3,0-1.9
	c1.8,0.4,1.9,1.2,3.8,1.4c0.2-0.8,0.3-1.6,0.5-2.4c-1.3-0.3-1.1-0.6-2.4-1C937.3,622,937.3,621.4,937.3,620.7z"/>
<path class="st0" d="M851.9,640.9c0,1.7-0.1,3.3-0.5,4.3c-0.2,0-0.3,0-0.5,0c0-0.2,0-0.3,0-0.5c-0.9-1.1-0.4-2.8-1-4.3
	c-0.2,0-0.3,0-0.5,0c0-0.6,0-1.3,0-1.9c0-0.1-1.1-0.9-1.4-1.4c0.5-0.3,1.4-1.4,1.4-1.4c0.5,0,1,0,1.4,0c0-0.2,0-0.3,0-0.5
	c0.5,0,1,0,1.4,0c1.9-0.6,3-0.7,3.4,1.9c-0.8,0.7-1.2,1.7-1.4,2.9c1.2,0.7,2.5,1.8,2.9,3.4c-0.2,0-0.3,0-0.5,0c0,0.2,0,0.3,0,0.5
	c-0.3,0-0.6,0-1,0C855,642.4,853.9,641.1,851.9,640.9z"/>
<path class="st0" d="M850.9,639.4c0.3,0,0.6,0,1,0c1-1.2,1.7-0.8,1.9-2.9c-0.2,0-0.3,0-0.5,0c0-0.2,0-0.3,0-0.5
	c-1,0.5-1.9,1-2.9,1.4C850.7,638.3,850.8,638.3,850.9,639.4z"/>
<path class="st0" d="M847.6,636.6c0,0.5,0,1,0,1.4c-0.5,0-1,0-1.4,0c0,0.2,0,0.3,0,0.5c-0.2,0-0.3,0-0.5,0c0,1.1,0,2.2,0,3.4
	c0.2,0,0.3,0,0.5,0c0,0.8,0,1.6,0,2.4c1.1-0.2,2.2-0.3,3.4-0.5c-0.2,0.5-0.3,1-0.5,1.4c-3.1,0.3-4.3,2.2-7.7,2.4
	c-0.6-1.5-0.8-2.6-2.9-2.9c-0.5,0.5,0,0.2-1,0.5c-0.3,1.1-0.6,2.2-1,3.4c-0.3,0-0.6,0-1,0c-0.1-4,1.1-6.3,1.4-9.6c0.5,0,1,0,1.4,0
	c0.3,1.8,1.1,3.4,2.9,3.8c-0.2,0.5-0.3,1-0.5,1.4c0.2,0,0.3,0,0.5,0c0.2,0.6,0.3,1.3,0.5,1.9c0.8-0.2,1.6-0.3,2.4-0.5
	c0.3-0.9,0.5-1.9,0.5-3.4c-0.2,0-0.3,0-0.5,0c0-1,0-1.9,0-2.9c-1.1,0.2-2.2,0.3-3.4,0.5c0-0.5,0-1,0-1.4
	C843.7,638.2,844.2,636.7,847.6,636.6z"/>
<path class="st0" d="M829.3,640.4c1.3,0,2.6,0,3.8,0c0.3,0.9,0.5,1.9,0.5,3.4c-0.8,1-1.6,1.9-2.4,2.9c-0.5,0.2-1,0.3-1.4,0.5
	c0,0.7,0.5-0.2,0.5,0.5c0,1.4-0.2,2.1-0.5,2.9c-0.2,0-0.3,0-0.5,0c0-0.2,0-0.3,0-0.5c-0.9-1-0.5-2.8-1-4.3c-0.2,0-0.3,0-0.5,0
	c0-0.8,0-1.6,0-2.4c-0.1-0.3-0.6,0-1-1.4c0.6-0.3,0.8-0.8,1-1c0.5,0,1,0,1.4,0C829.3,640.7,829.3,640.6,829.3,640.4z"/>
<path class="st0" d="M826.4,643.3c-0.6-0.2-1.3-0.3-1.9-0.5c0,0.2,0,0.3,0,0.5c-1.5,0.3-2,0.9-2.4,2.4c1.6-0.3,3.2-0.6,4.8-1
	c0.2,0.5,0.3,1,0.5,1.4c0.2,0,0.3,0,0.5,0c0,0.8,0,1.6,0,2.4c-1.4,1-0.3,0.7-1,1.4c-0.5,0.2-1,0.3-1.4,0.5c-0.2,0.3-0.3,0.6-0.5,1
	c-1,0-1.9,0-2.9,0c-0.3-0.5-0.6-1-1-1.4c0.2,0,0.3,0,0.5,0c0-0.2,0-0.3,0-0.5c1.8,0.3,1.5,0.3,3.4,0c0.6-1.1,1.1-1.4,1.4-2.9
	c-1.9,0.2-3.8,0.3-5.8,0.5c-0.4-0.6-0.3-0.6-1-1c0.2-0.5,0.3-1,0.5-1.4c0.8-0.5,0.7-0.3,1-1.4c0.3,0,0.6,0,1,0
	c0.2-0.3,0.3-0.6,0.5-1c1.1-0.9,2.3-1.1,3.4,0C826.5,642.9,826.2,642.3,826.4,643.3z"/>
<path class="st0" d="M837.5,643.8c0.5-0.2,1-0.3,1.4-0.5c-0.4-0.5,0.1-0.1-0.5-0.5c-0.2-0.5-0.3-1-0.5-1.4c-0.2,0-0.3,0-0.5,0
	C837.5,642.2,837.5,643,837.5,643.8z"/>
<path class="st0" d="M828.8,642.3c0.2,1,0.3,1.9,0.5,2.9c0.5,0,1,0,1.4,0c0.8-1.3,1.3-1.2,1.4-3.4
	C830.6,641.9,830,642.1,828.8,642.3z"/>
<path class="st0" d="M818.3,643.8c0,0.5,0,1,0,1.4c-1.7,0.1-2.3,0.6-3.8,1c-0.4,0.5,0.1,0.1-0.5,0.5c0,0.5,0,1,0,1.4
	c1.4-0.3,2.9-0.6,4.3-1c0.4,0.5-0.1,0.1,0.5,0.5c-0.5,0.5,0,0.2-1,0.5c-1.9,1.7-3.2-0.4-3.4,3.4c0.8,0.3,1.1,0.4,2.4,0.5
	c0.9-1,2.4-1.4,4.3-1.4c-0.3,1.3-0.1,1.1-1.4,1.4c0,0.2,0,0.3,0,0.5c-0.6,0-1.3,0-1.9,0c0,0.2,0,0.3,0,0.5c-1.4,0.7-2.3,0.9-4.3,1
	c-0.1-0.9-0.5-0.9-0.5-1c0-0.8,0-1.6,0-2.4c-0.2,0-0.3,0-0.5,0c0,0.5,0,1,0,1.4c-0.3,0.2-0.6,0.3-1,0.5c0,0.3,0,0.6,0,1
	c-0.2,0-0.3,0-0.5,0c-0.2,0.3-0.3,0.6-0.5,1c-0.3,0-0.6,0-1,0c0,0.2,0,0.3,0,0.5c-0.9,0.7-1.2,0.9-2.9,1c-0.5-3-1-6.1-1.4-9.1
	c2-0.2,2.5-0.7,4.3,0c0.5,0,1,0,1.4,0c0,0.2,0,0.3,0,0.5c0.5,0.3,1,0.6,1.4,1c0-0.2,0-0.3,0-0.5c-0.2,0-0.3,0-0.5,0
	c0-0.6,0-1.3,0-1.9C814.5,645.2,815.1,643.9,818.3,643.8z"/>
<path class="st0" d="M807.2,647.6c0.3,2.1,0.6,4.2,1,6.2c0.2,0,0.3,0,0.5,0c0.5-0.5,0-0.2,1-0.5c0.8-1.7,1.4-2.1,1.4-4.8
	C809.9,647.9,809.4,647.6,807.2,647.6z"/>
</svg>
