<?xml version="1.0" encoding="utf-8"?>
<!-- Generator: Adobe Illustrator 26.2.1, SVG Export Plug-In . SVG Version: 6.00 Build 0)  -->
<svg version="1.1" id="Layer_1" xmlns="http://www.w3.org/2000/svg" xmlns:xlink="http://www.w3.org/1999/xlink" x="0px" y="0px"
	 viewBox="0 0 1920 1080" style="enable-background:new 0 0 1920 1080;" xml:space="preserve">
<style type="text/css">
	.st0{fill:#FFFFFF;stroke:#000000;stroke-miterlimit:10;}
</style>
<path class="st0" d="M1188,631.1c-144.8,13.4-289.6,26.9-434.4,40.3c-6.9-74.4-13.8-148.8-20.6-223.2
	c144.8-13.4,289.6-26.9,434.4-40.3C1174.2,482.3,1181.1,556.7,1188,631.1z"/>
<path class="st0" d="M1148.1,426.1c-132.5,12.5-265,25-397.4,37.4c0,0.2,0,0.3,0,0.5c5.9,62.9,11.8,125.8,17.8,188.6
	c97.8-9.1,195.5-18.2,293.3-27.4c25.9-2.4,51.8-4.8,77.8-7.2c8.5-1.4,24,1.2,30.2-3.4c-5.9-62.9-11.8-125.8-17.8-188.6
	C1150.7,426.1,1149.4,426.1,1148.1,426.1z"/>
</svg>
