<?xml version="1.0" encoding="utf-8"?>
<!-- Generator: Adobe Illustrator 26.2.1, SVG Export Plug-In . SVG Version: 6.00 Build 0)  -->
<svg version="1.1" id="Layer_1" xmlns="http://www.w3.org/2000/svg" xmlns:xlink="http://www.w3.org/1999/xlink" x="0px" y="0px"
	 viewBox="0 0 254.9 226.6" style="enable-background:new 0 0 254.9 226.6;" xml:space="preserve">
<style type="text/css">
	.st0{fill:#FFFFFF;stroke:#000000;stroke-width:0.25;stroke-miterlimit:10;}
</style>
<path class="st0" d="M226.6,9.1c2.9,0.3,2.4,0.4,3.4,2.4c-3,6.5,0.8,21,2.4,27.4c0.4,1.7-1.1,5.8-0.5,9.1
	c2.3,12.6,5.7,32.3,3.8,44.2c5.2,1.5,4.2,15.3,5.3,21.1c3.8,20.5,4.5,36.2,6.2,55.2c-12.7,8.9-29.5,14-42.2,23
	c-6.4,4.5-14.4,11.8-23,13.4c-12.5,2.4-35-8.2-44.6-5.3c-2.4,0.7-4.5,3.9-6.2,4.8c-4.2,2.2-6.7-0.6-8.6,3.8c1.9,0.3,3.8,0.6,5.8,1
	c0,0.2,0,0.3,0,0.5c-3.1-0.1-17.4,1.2-18.2,1c1.4-0.5,2.9-1,4.3-1.4c0-0.3,0-0.6,0-1c-0.2-0.3-0.3-0.6-0.5-1
	c-5.9-0.2-35.7-7.4-37.9-1c2.2,0.3,4.5,0.6,6.7,1c0,0.2,0,0.3,0,0.5c-6.8-0.6-13.2-1.8-17.3,2.4c0,0.2,0,0.3,0,0.5
	c5.3,1.1,10.6,2.2,15.8,3.4c-8.5,0.3-16.3-3.1-24.5-1c-0.2,0.3-0.3,0.6-0.5,1c1.6,0.6,3.2,1.3,4.8,1.9c-6,0.9-15.5,3.2-21.6,1.9
	c-1-11.4-3.2-24.6-5.8-35c-1.6-14.1-3.2-28.2-4.8-42.2c-3-0.6-6.1-1.3-9.1-1.9c1.3-2,2.3-2,2.9-4.8c-7.1-4-5.4-13.2-7.2-22.6
	C12.9,98.5,3.4,49.8,9.1,40.8c3.2-0.7,4.6-2.5,6.7-3.4c9.4-1.3,18.9-2.6,28.3-3.8c31.1-7.1,66.6-10.7,99.8-16.3
	C171.5,14.6,199,11.8,226.6,9.1z"/>
<path class="st0" d="M197.8,28.8c9.1-1.4,18.2-2.9,27.4-4.3c-0.3-3.4-0.6-6.7-1-10.1c-9.1,1.4-18.2,2.9-27.4,4.3
	C197.1,22.1,197.4,25.4,197.8,28.8z"/>
<path class="st0" d="M174.2,22.6c0.3,3.5,0.6,7,1,10.6c6.6-1,13.1-1.9,19.7-2.9c-0.2-3.7-0.3-7.4-0.5-11
	C187.7,20.3,181,21.4,174.2,22.6z"/>
<path class="st0" d="M151.7,37.9c6.7-1.3,13.4-2.6,20.2-3.8c0-0.6,0-1.3,0-1.9c-0.3-2.9-0.6-5.8-1-8.6c-6.6,1.1-13.1,2.2-19.7,3.4
	C151.4,30.6,151.5,34.2,151.7,37.9z"/>
<path class="st0" d="M143.5,27.4c-5.1,1-10.2,1.9-15.4,2.9c0.5,3.5,1,7,1.4,10.6c5.9-0.8,11.8-1.6,17.8-2.4c-0.5-3.7-1-7.4-1.4-11
	C145.1,27.4,144.3,27.4,143.5,27.4z"/>
<path class="st0" d="M226.6,38.9c-0.2-3.8-0.3-7.7-0.5-11.5c-9.3,1.4-18.6,2.9-27.8,4.3c0.3,3.7,0.6,7.4,1,11c0.8,0,1.6,0,2.4,0
	C209.9,41.4,218.2,40.2,226.6,38.9z"/>
<path class="st0" d="M124.8,31.2c-6.2,1-12.5,1.9-18.7,2.9c0,0.8,0,1.6,0,2.4c0.6,2.9,1.3,5.8,1.9,8.6c0.2,0,0.3,0,0.5,0
	c5.8-1.1,11.5-2.2,17.3-3.4C125.4,38.2,125.1,34.7,124.8,31.2z"/>
<path class="st0" d="M193.9,32.2c-6.1,1.1-12.2,2.2-18.2,3.4c0.3,3.5,0.6,7,1,10.6c6.6-1,13.1-1.9,19.7-2.9
	C196.4,39.8,196.2,33.5,193.9,32.2z"/>
<path class="st0" d="M98.9,35c-7.5,1.3-15,2.6-22.6,3.8c0.6,3.8,1.3,7.7,1.9,11.5c8.8-1.8,17.6-3.5,26.4-5.3
	c-0.5-3.4-1-6.7-1.4-10.1C101.8,35,100.3,35,98.9,35z"/>
<path class="st0" d="M153.1,50.4c6.7-1.3,13.4-2.6,20.2-3.8c0.1-3.7,0.1-9.1-2.9-10.1c-6.1,1.3-12.2,2.6-18.2,3.8c0,0.8,0,1.6,0,2.4
	C152.5,45.3,152.8,47.8,153.1,50.4z"/>
<path class="st0" d="M50.9,38.9c0.6,0.2,1.3,0.3,1.9,0.5C52.2,39.2,51.5,39,50.9,38.9z"/>
<path class="st0" d="M47,39.4c-8.5,3.2-28.6,1.7-34.6,6.7C20.7,45.9,54.2,37.8,47,39.4z"/>
<path class="st0" d="M48.5,39.4c0.5,0.2,1,0.3,1.4,0.5C49.4,39.7,49,39.5,48.5,39.4z"/>
<path class="st0" d="M49.9,42.7c0.5,4.3,1,8.6,1.4,13c7.5-1.4,15-2.9,22.6-4.3c-0.5-3.8-1-7.7-1.4-11.5C65,40.8,57.4,41.8,49.9,42.7
	z"/>
<path class="st0" d="M129.6,43.2c0.5,3.5,1,7,1.4,10.6c1,0,1.9,0,2.9,0c5.3-1,10.6-1.9,15.8-2.9c-0.5-3.4-1-6.7-1.4-10.1
	C142.1,41.6,135.8,42.4,129.6,43.2z"/>
<path class="st0" d="M228,51.4c-0.2-3.4-0.3-6.7-0.5-10.1c-9.3,1.3-18.6,2.6-27.8,3.8c0,1,0,1.9,0,2.9c0.3,2.2,0.6,4.5,1,6.7
	C209.8,53.6,218.9,52.5,228,51.4z"/>
<path class="st0" d="M48.5,56.6c-0.6-4.3-1.3-8.6-1.9-13c-11.4,2.1-22.7,4.2-34.1,6.2c0,0.2,0,0.3,0,0.5c0.5,3.2,1.9,10.5,4.3,12
	C27.4,60.5,37.9,58.6,48.5,56.6z"/>
<path class="st0" d="M127.7,55.2c-0.3-3.8-0.6-7.7-1-11.5c-6.2,1.1-12.5,2.2-18.7,3.4c0.5,4,1,8,1.4,12
	C115.5,57.8,121.6,56.5,127.7,55.2z"/>
<path class="st0" d="M197.8,55.2c-0.3-3.2-0.6-6.4-1-9.6c-6.6,1-13.1,1.9-19.7,2.9c0,1,0,1.9,0,2.9c0.3,2.1,0.6,4.2,1,6.2
	C184.6,56.8,191.2,56,197.8,55.2z"/>
<path class="st0" d="M106.6,60c-0.3-4-0.6-8-1-12c-9.1,1.8-18.2,3.5-27.4,5.3c0,0.5,0,1,0,1.4c0.6,3.5,1.3,7,1.9,10.6
	C89,63.5,97.8,61.8,106.6,60z"/>
<path class="st0" d="M154.6,60.5c6.7-0.8,13.4-1.6,20.2-2.4c-0.3-2.9-0.6-5.8-1-8.6c-6.7,1.1-13.4,2.2-20.2,3.4
	C153.9,55.4,154.2,57.9,154.6,60.5z"/>
<path class="st0" d="M148.3,53.3c-5.6,1.1-11.2,2.2-16.8,3.4c0,0.6,0,1.3,0,1.9c0.3,2.2,0.6,4.5,1,6.7c0.8,0,1.6,0,2.4,0
	c5.3-1.3,10.6-2.6,15.8-3.8c-0.2-2.7-0.3-5.4-0.5-8.2C149.6,53.3,149,53.3,148.3,53.3z"/>
<path class="st0" d="M71.5,54.2c-6.6,1.3-13.1,2.6-19.7,3.8c0.8,4.3,1.6,8.6,2.4,13c7.4-1.4,14.7-2.9,22.1-4.3
	c-0.6-4.2-1.3-8.3-1.9-12.5C73.4,54.2,72.5,54.2,71.5,54.2z"/>
<path class="st0" d="M202.1,65.8c9.1-1,18.2-1.9,27.4-2.9c-0.2-2.9-0.3-5.8-0.5-8.6c-9.3,1-18.6,1.9-27.8,2.9
	C201.4,60,201.8,62.9,202.1,65.8z"/>
<path class="st0" d="M128.2,57.1c-5.8,1.4-12.5,2.9-18.2,4.3c0.3,3.2,0.6,6.4,1,9.6c6.2-1.4,12.5-2.9,18.7-4.3
	C129.4,63.7,128.5,58.8,128.2,57.1z"/>
<path class="st0" d="M199.2,66.2c-0.3-2.9-0.6-5.8-1-8.6c-6.6,0.8-13.1,1.6-19.7,2.4c0.3,2.7,0.6,5.4,1,8.2
	C186.1,67.5,192.6,66.9,199.2,66.2z"/>
<path class="st0" d="M51.4,72c-0.8-4.3-1.6-8.6-2.4-13c-10.9,2.4-21.8,4.8-32.6,7.2c0.8,3.8,1.6,7.7,2.4,11.5
	C29.6,75.8,40.5,73.9,51.4,72z"/>
<path class="st0" d="M155.5,62.9c0.2,2.7,0.3,5.4,0.5,8.2c6.7-0.8,13.4-1.6,20.2-2.4c0-1.1,0-2.2,0-3.4c-0.3-1.6-0.6-3.2-1-4.8
	C168.6,61.3,162.1,62.1,155.5,62.9z"/>
<path class="st0" d="M107,61c-5.3,2.4-22.2,4.3-26.9,7.2c0.5,2.9,1,7.7,1.4,10.6c8.8-2.2,17.6-4.5,26.4-6.7
	C108.2,68.1,108,64.7,107,61z"/>
<path class="st0" d="M149.3,63.8c-5.4,1.4-10.9,2.9-16.3,4.3c0.2,2.9,0.3,5.8,0.5,8.6c6.2-1.4,12.5-2.9,18.7-4.3
	c-0.3-2.7-0.6-5.4-1-8.2C150.6,64.2,149.9,64,149.3,63.8z"/>
<path class="st0" d="M202.6,68.2c0.3,2.7,0.6,5.4,1,8.2c9.1-1,18.2-1.9,27.4-2.9c0-0.5,0-1,0-1.4c-0.3-2.2-0.6-4.5-1-6.7
	C220.8,66.2,211.7,67.2,202.6,68.2z"/>
<path class="st0" d="M197.3,68.6c-5.8,1-11.5,1.9-17.3,2.9c0.5,2.6,1,5.1,1.4,7.7c6.4-0.8,12.8-1.6,19.2-2.4c-0.3-2.7-0.6-5.4-1-8.2
	C198.9,68.6,198.1,68.6,197.3,68.6z"/>
<path class="st0" d="M76.8,69.1c-7.4,1.4-14.7,2.9-22.1,4.3c0.5,3.8,1,7.7,1.4,11.5c7.4-1.6,14.7-3.2,22.1-4.8
	C77.8,76.5,77.3,72.8,76.8,69.1z"/>
<path class="st0" d="M128.2,69.1c-5.6,1.6-11.2,3.2-16.8,4.8c0.3,3,0.6,6.1,1,9.1c0.2,0,0.3,0,0.5,0c4.3-1.3,15.5-3.2,18.2-5.3
	c-0.3-2.4-0.6-5.8-1-8.2C129.4,69.4,128.8,69.3,128.2,69.1z"/>
<path class="st0" d="M157.4,81.1c6.9-0.6,13.8-1.3,20.6-1.9c-0.3-2.6-0.6-5.1-1-7.7c-6.7,0.8-13.4,1.6-20.2,2.4
	C157.1,76.3,157.3,78.7,157.4,81.1z"/>
<path class="st0" d="M53.3,85.4c-0.3-3.7-0.6-7.4-1-11c-11,2.4-22.1,4.8-33.1,7.2c0.3,3,0.6,6.1,1,9.1
	C30.1,93.4,43.1,86.4,53.3,85.4z"/>
<path class="st0" d="M83,90.7c8.8-2.2,17.6-4.5,26.4-6.7c-0.2-3-0.3-6.1-0.5-9.1c-5,0.1-22.4,5.2-26.9,6.7
	C82.4,83.8,82.7,88.5,83,90.7z"/>
<path class="st0" d="M150.7,74.9c-5.6,1.6-11.2,3.2-16.8,4.8c0.3,2.7,0.6,5.4,1,8.2c0.5,0,1,0,1.4,0c3.9-1.2,13.8-2.9,16.8-5.3
	c0.7-0.5-0.1-2,0-2.9c-0.2-1.4-0.3-2.9-0.5-4.3C152,75.2,151.4,75,150.7,74.9z"/>
<path class="st0" d="M231.4,76.3c-9,0.8-17.9,1.6-26.9,2.4c0,0.6,0,1.3,0,1.9c0.5,1.6,1,3.2,1.4,4.8c8.6-0.6,17.3-1.3,25.9-1.9
	c0-0.5,0-1,0-1.4C231.7,80.2,231.5,78.2,231.4,76.3z"/>
<path class="st0" d="M198.7,79.2c-5.6,0.6-11.2,1.3-16.8,1.9c0.5,2.2,1,4.5,1.4,6.7c6.6-0.6,13.1-1.3,19.7-1.9c0-0.5,0-1,0-1.4
	c-0.5-1.8-1-3.5-1.4-5.3C200.6,79.2,199.7,79.2,198.7,79.2z"/>
<path class="st0" d="M129.1,80.6c-5.4,1.6-10.9,3.2-16.3,4.8c0.3,2.9,0.6,5.8,1,8.6c0.5,0,1,0,1.4,0c5.6-1.6,11.2-3.2,16.8-4.8
	c-0.3-2.9-0.6-5.8-1-8.6C130.4,80.6,129.8,80.6,129.1,80.6z"/>
<path class="st0" d="M158.4,83.5c0.2,2.1,0.3,4.2,0.5,6.2c6.9-0.6,13.8-1.3,20.6-1.9c0-2.1,0-4.2,0-6.2
	C172.5,82.2,165.4,82.9,158.4,83.5z"/>
<path class="st0" d="M79.2,91.7c-0.2-3-0.3-6.1-0.5-9.1c-7.2,1.4-14.4,2.9-21.6,4.3c0,0.8,0,1.6,0,2.4c0.3,2.1,0.6,4.2,1,6.2
	c0.6,0,1.3,0,1.9,0C66.4,94.2,72.8,93,79.2,91.7z"/>
<path class="st0" d="M152.2,85c-5.9,1.9-11.8,3.8-17.8,5.8c0.3,2.2,0.6,4.5,1,6.7c0.2,0,0.3,0,0.5,0c5.8-1.8,12.5-4,18.2-5.8
	c0.2-2.4-0.6-4.3-0.5-6.7C153.1,85,152.6,85,152.2,85z"/>
<path class="st0" d="M84.5,102.2c8.8-2.4,17.6-4.8,26.4-7.2c-0.2-2.9-0.3-5.8-0.5-8.6c-9,2.4-17.9,4.8-26.9,7.2
	C83.8,96.5,84.2,99.4,84.5,102.2z"/>
<path class="st0" d="M50.9,87.8C41,90.1,31,92.3,21.1,94.6c0,4.4,0.7,8.8,2.4,11.5c0.2,0,0.3,0,0.5,0c10.4-3.2,20.8-6.4,31.2-9.6
	c-0.5-2.9-1-5.8-1.4-8.6C52.8,87.8,51.8,87.8,50.9,87.8z"/>
<path class="st0" d="M217.4,88.8c-5.4,2.1-17.3-1.3-21.1,3.4c7.7-0.6,21.5-3.9,28.8-1c-1.5,0.8-1.1,0.4-1.9,1.9c0.2,0,0.3,0,0.5,0
	c1.9-0.2,3.8-0.3,5.8-0.5c-0.2-0.8-0.3-1.6-0.5-2.4c0.2-0.5,0.3-1,0.5-1.4C225.4,88.8,221.4,88.8,217.4,88.8z"/>
<path class="st0" d="M189.1,90.7c-0.6,0.3-1.3,0.6-1.9,1c0,0.2,0,0.3,0,0.5c0.6,0,1.3,0,1.9,0c1-0.5,1.9-1,2.9-1.4
	C191,90.7,190.1,90.7,189.1,90.7z"/>
<path class="st0" d="M176.6,91.7c-4.8,0.5-9.6,1-14.4,1.4c0,0.2,0,0.3,0,0.5c8.2-0.5,16.3-1,24.5-1.4C183.4,92,180,91.8,176.6,91.7z
	"/>
<path class="st0" d="M132,92.2c-6.1,1.4-12.2,2.9-18.2,4.3c0,2.6,0,5.1,0,7.7c6.1-1.8,12.2-3.5,18.2-5.3C132,96.6,132,94.4,132,92.2
	z"/>
<path class="st0" d="M215,92.6c0.5,0.2,1,0.3,1.4,0.5C216,93,215.5,92.8,215,92.6z"/>
<path class="st0" d="M218.4,92.6c1.3,0,2.6,0,3.8,0C221,92.6,219.7,92.6,218.4,92.6z"/>
<path class="st0" d="M77.8,94.1c-6.4,1.3-12.8,2.6-19.2,3.8c0.5,4.2,1,8.3,1.4,12.5c7-2.1,14.1-4.2,21.1-6.2
	c-0.5-3.4-1-6.7-1.4-10.1C79,94.1,78.4,94.1,77.8,94.1z"/>
<path class="st0" d="M155.5,95c-1.9,0.5-3.8,1-5.8,1.4c0,0.2,0,0.3,0,0.5c2.6-0.2,5.1-0.3,7.7-0.5c0-0.2,0-0.3,0-0.5
	C156.8,95.7,156.2,95.4,155.5,95z"/>
<path class="st0" d="M212.6,106.6c7.5,0,15,0,22.6,0c-0.8-3.8-1.6-7.7-2.4-11.5c-6.9,0.3-13.8,0.6-20.6,1
	C212.3,99.5,212.5,103,212.6,106.6z"/>
<path class="st0" d="M190.1,99.8c0.3,2.1,0.6,4.2,1,6.2c6.6,0,13.1,0,19.7,0c-0.2-3.4-0.3-6.7-0.5-10.1c-6.9,0.3-13.8,0.6-20.6,1
	c0,0.5,0,1,0,1.4c3.4,0,6.7,0,10.1,0c-0.2,0.3-0.3,0.6-0.5,1c-0.3,0-0.6,0-1,0C195.5,99.5,192.8,99.7,190.1,99.8z"/>
<path class="st0" d="M176.6,97.4c-1.1,0.3-2.2,0.6-3.4,1c0,0.2,0,0.3,0,0.5c4.6-0.3,9.3-0.6,13.9-1
	C183.7,97.8,180.2,97.6,176.6,97.4z"/>
<path class="st0" d="M109,97.9c-8,2.6-16,5.1-24,7.7c0.1,2.4-0.2,7.1,1,8.6c8.2-2.7,16.8-5.9,25-8.6c0-2.6,0-5.1,0-7.7
	C110.2,97.9,109.6,97.9,109,97.9z"/>
<path class="st0" d="M145,97.9c-0.8,0.3-1.6,0.6-2.4,1c0,0.2,0,0.3,0,0.5c1.9,0,3.8,0,5.8,0c0-0.3,0-0.6,0-1
	C147.2,98.2,146.1,98.1,145,97.9z"/>
<path class="st0" d="M158.9,97.9c-1,0.3-1.9,0.6-2.9,1c0,0.2,0,0.3,0,0.5c1.8,0,3.5,0,5.3,0c0-0.5,0-1,0-1.4
	C160.5,97.9,159.7,97.9,158.9,97.9z"/>
<path class="st0" d="M165.6,97.9c1.3,1.2,1.5,0.8,3.4,0.5c0-0.2,0-0.3,0-0.5C167.8,97.9,166.7,97.9,165.6,97.9z"/>
<path class="st0" d="M53.8,99.4c-10.1,3.4-20.2,6.7-30.2,10.1c0.6,3.8,1.3,7.7,1.9,11.5c9.7,1.2,21.3-7.1,31.2-9.1
	c-0.3-4.2-0.6-8.3-1-12.5C55,99.4,54.4,99.4,53.8,99.4z"/>
<path class="st0" d="M184.3,99.8c-5.1,1.9-14.6-1-18.7,1.9c5.5,0.2,19.5,1.5,21.6-1.9C186.2,99.8,185.3,99.8,184.3,99.8z"/>
<path class="st0" d="M148.3,101.3c-0.3,0.2-0.6,0.3-1,0.5c3.5,0,7,0,10.6,0C154.7,101.6,151.5,101.4,148.3,101.3z"/>
<path class="st0" d="M134.9,101.8c0.5,0.2,1,0.3,1.4,0.5C135.8,102.1,135.4,101.9,134.9,101.8z"/>
<path class="st0" d="M174.7,103.2c-2.9,0.2-5.8,0.3-8.6,0.5c0,0.6,0,1.3,0,1.9c7.2-0.3,14.1,2.1,21.6,0c-0.2-0.8-0.3-1.6-0.5-2.4
	C183,103.2,178.9,103.2,174.7,103.2z"/>
<path class="st0" d="M142.1,103.7c-0.3,0.2-0.6,0.3-1,0.5c0,0.5,0,1,0,1.4c0.3,0,0.6,0,1,0c1.7,0.6,5.3-0.2,6.7-1.4
	c0-0.2,0-0.3,0-0.5C146.6,103.7,144.3,103.7,142.1,103.7z"/>
<path class="st0" d="M156,103.7c-1.6,0.6-3.2,1.3-4.8,1.9c3.7,0,7.4,0,11,0c0-0.6,0-1.3,0-1.9C160.2,103.7,158.1,103.7,156,103.7z"
	/>
<path class="st0" d="M126.2,104.2c-0.3,0.2-0.6,0.3-1,0.5c1.4,0,2.9,0,4.3,0C128.5,104.5,127.4,104.3,126.2,104.2z"/>
<path class="st0" d="M137.3,105.1c0.5,0.2,1,0.3,1.4,0.5C138.2,105.4,137.8,105.3,137.3,105.1z"/>
<path class="st0" d="M60.5,122.4c7.4-2.4,14.7-4.8,22.1-7.2c0-0.6,0-1.3,0-1.9c-0.3-2.2-0.6-4.5-1-6.7c-7.2,2.2-14.4,4.5-21.6,6.7
	C60.2,116.3,60.3,119.4,60.5,122.4z"/>
<path class="st0" d="M151.7,107c-2.6,0.9-7.6,0-9.6,1.4c0,0.2,0,0.3,0,0.5c5.8-0.3,11.5-0.6,17.3-1c0-0.2,0-0.3,0-0.5
	C156.8,107.4,154.2,107.2,151.7,107z"/>
<path class="st0" d="M118.1,107.5c0.3,0.2,0.6,0.3,1,0.5C118.7,107.8,118.4,107.7,118.1,107.5z"/>
<path class="st0" d="M128.6,107.5c-0.5,0.2-1,0.3-1.4,0.5c0,0.2,0,0.3,0,0.5c3.5,0.3,7.3,0.9,10.1-0.5
	C134.4,107.8,131.5,107.7,128.6,107.5z"/>
<path class="st0" d="M166.1,111.4c2.6,0,5.1,0,7.7,0c-0.5,0.6-1,1.3-1.4,1.9c-1.9,0-3.8,0-5.8,0c0.2,1.4,0.3,2.9,0.5,4.3
	c7.4-0.2,14.7-0.3,22.1-0.5c-0.5-3-1-6.1-1.4-9.1c-7.2,0.2-14.4,0.3-21.6,0.5C166.1,109.4,166.1,110.4,166.1,111.4z"/>
<path class="st0" d="M191.5,108c0.3,3.2,0.6,6.4,1,9.6c6.4,0.2,12.8,0.3,19.2,0.5c-0.3-3.2-0.6-6.4-1-9.6
	C204.3,108.3,197.9,108.2,191.5,108z"/>
<path class="st0" d="M213.6,118.6c7.8,0.2,15.7,0.3,23.5,0.5c-0.5-3.5-1-7-1.4-10.6c-7.7-0.2-15.4-0.3-23-0.5c0,1,0,1.9,0,2.9
	C213,113.4,213.3,116,213.6,118.6z"/>
<path class="st0" d="M119.5,110.4c1.5,1.6,7.1,1.3,8.6,0C125.3,110.4,122.4,110.4,119.5,110.4z"/>
<path class="st0" d="M135.4,110.4c-1,0.3-1.9,0.6-2.9,1c0,0.2,0,0.3,0,0.5c1.4-0.2,2.9-0.3,4.3-0.5c0-0.2,0-0.3,0-0.5
	C136.3,110.7,135.8,110.6,135.4,110.4z"/>
<path class="st0" d="M161.3,110.4c-2.2,0.3-4.5,0.6-6.7,1c3-0.2,6.1-0.3,9.1-0.5C162.9,110.7,162.1,110.6,161.3,110.4z"/>
<path class="st0" d="M142.6,110.9c1.5,1.5,4.3,0.8,6.7,0.5C147,111.2,144.8,111,142.6,110.9z"/>
<path class="st0" d="M152.6,113.3c-2.6,0.5-5.1,1-7.7,1.4c0,0.2,0,0.3,0,0.5c6.2,0,12.5,0,18.7,0c0,0.2,0,0.3,0,0.5
	c-0.2,0.2-0.3,0.3-0.5,0.5c-4.5,0.4-18.6-0.8-20.6,2.4c3.2,0.2,6.4,0.3,9.6,0.5c0,0.2,0,0.3,0,0.5c-0.3,0-0.6,0-1,0
	c-1.7,1.1-5.1,1.1-8.2,1c0.2,1.3,0.3,2.6,0.5,3.8c3.9-0.6,16.3-3.9,20.6-7.2c0.9-0.7-0.2-0.7,0-1.4c-0.2-0.8-0.3-1.6-0.5-2.4
	C160,113.3,156.3,113.3,152.6,113.3z"/>
<path class="st0" d="M113.8,113.8c-3.2,0.3-6.4,0.6-9.6,1c0,0.2,0,0.3,0,0.5c4,0.2,12.4,1.1,13.9-1.4
	C116.6,113.8,115.2,113.8,113.8,113.8z"/>
<path class="st0" d="M122.9,113.8c-1,0.3-1.9,0.6-2.9,1c0,0.2,0,0.3,0,0.5c3.3,0.4,5.3-0.1,8.2-1c0-0.2,0-0.3,0-0.5
	C126.4,113.8,124.6,113.8,122.9,113.8z"/>
<path class="st0" d="M133.9,113.8c-1,0.3-1.9,0.6-2.9,1c0,0.2,0,0.3,0,0.5c2.9,0.1,5.5,0,7.2-1c0-0.2,0-0.3,0-0.5
	C136.8,113.8,135.4,113.8,133.9,113.8z"/>
<path class="st0" d="M26.4,130.6c3.9,0.3,6.2,2.8,9.1,2.4c7.4-2.9,14.7-5.8,22.1-8.6c-0.2-3.2-0.3-6.4-0.5-9.6c-0.2,0-0.3,0-0.5,0
	c-10.2,3.5-20.5,7-30.7,10.6C26.1,127,26.2,128.8,26.4,130.6z"/>
<path class="st0" d="M96.5,117.1c-0.3,0.2-0.6,0.3-1,0.5c0,0.5,0,1,0,1.4c8,0.1,17.1,0.2,23-1.4c0-0.2,0-0.3,0-0.5
	C111.2,117.1,103.8,117.1,96.5,117.1z"/>
<path class="st0" d="M123.4,117.1c-0.6,0.3-1.3,0.6-1.9,1c0,0.3,0,0.6,0,1c1.3,0,2.6,0,3.8,0c1.6-0.6,3.2-1.3,4.8-1.9
	C127.8,117.1,125.6,117.1,123.4,117.1z"/>
<path class="st0" d="M136.3,117.1c-0.8,0.5-1.6,1-2.4,1.4c1.4,0.2,2.9,0.3,4.3,0.5c1.2-0.9,0.8-0.3,1.4-1.9
	C138.6,117.1,137.4,117.1,136.3,117.1z"/>
<path class="st0" d="M163.2,119c-6.6,2.4-13.1,4.8-19.7,7.2c0.5,2.9,1,5.8,1.4,8.6c0.2,0,0.3,0,0.5,0c6.7-0.7,15.1-4.6,20.2-7.7
	c-0.3-2.4-0.6-4.8-1-7.2C163.8,119,164.6,119.7,163.2,119z"/>
<path class="st0" d="M167,119c0.3,2.7,0.6,5.4,1,8.2c7.4,0.3,14.7,0.6,22.1,1c-0.2-2.9-0.3-5.8-0.5-8.6
	C182.1,119.4,174.6,119.2,167,119z"/>
<path class="st0" d="M212.2,120c-6.4-0.3-12.8-0.6-19.2-1c0,1.3,0,2.6,0,3.8c0.5,1.9,1,3.8,1.4,5.8c6.2,0.3,12.5,0.6,18.7,1
	c0-0.5,0-1,0-1.4C212.8,125.4,212.5,122.7,212.2,120z"/>
<path class="st0" d="M214.6,119.5c0.2,3.5,0.3,7,0.5,10.6c8,0.3,16,0.6,24,1c0-0.5,0-1,0-1.4c-0.5-2.9-1-5.8-1.4-8.6
	C229.9,120.5,222.2,120,214.6,119.5z"/>
<path class="st0" d="M85.9,120.5c-1,0.5-1.9,1-2.9,1.4c3,0,6.1,0,9.1,0c0-0.5,0-1,0-1.4C90.1,120.5,88,120.5,85.9,120.5z"/>
<path class="st0" d="M128.2,120.5c-1,0.3-1.9,0.6-2.9,1c0,0.2,0,0.3,0,0.5c4.1,0.2,13.3,1.1,14.9-1.4
	C136.2,120.5,132.2,120.5,128.2,120.5z"/>
<path class="st0" d="M95.5,121c0,0.5,0,1,0,1.4c3.8-0.3,7.7-0.6,11.5-1c0-0.2,0-0.3,0-0.5C103.2,121,99.4,121,95.5,121z"/>
<path class="st0" d="M113.3,121c-0.7,0.6-0.8,0.6-1.4,1.4c0.2,0,0.3,0,0.5,0c2.2-0.3,4.5-0.6,6.7-1
	C117.1,121.3,115.2,121.1,113.3,121z"/>
<path class="st0" d="M92.6,126.2c0-0.8,0-1.6,0-2.4c-6.8-0.1-14.3,0-19.7,1c0,0.3,0,0.6,0,1C79.5,125.9,86.1,126.1,92.6,126.2z"/>
<path class="st0" d="M95.5,123.8c0,0.5,0,1,0,1.4c1.1-0.3,2.2-0.6,3.4-1c0-0.2,0-0.3,0-0.5C97.8,123.8,96.6,123.8,95.5,123.8z"/>
<path class="st0" d="M106.1,123.8c-2.3,0.9-4.6,0.9-6.2,2.4c4.8,0.2,8.7-0.1,11.5-1.9c0-0.2,0-0.3,0-0.5
	C109.6,123.8,107.8,123.8,106.1,123.8z"/>
<path class="st0" d="M120,126.2c0-0.8,0-1.6,0-2.4c-2.9,0.2-5.6,0.9-7.2,2.4C115.2,126.2,117.6,126.2,120,126.2z"/>
<path class="st0" d="M121.9,123.8c0,0.8,0,1.6,0,2.4c3.4-0.2,6.9-0.8,8.6,0.5c-0.3,0.3-0.6,0.6-1,1c-2.4,0.2-4.8,0.3-7.2,0.5
	c0,1.4,0,2.9,0,4.3c6.1-2.1,12.2-4.2,18.2-6.2c-0.2-0.8-0.3-1.6-0.5-2.4C134.1,123.8,128,123.8,121.9,123.8z"/>
<path class="st0" d="M65.8,127.7c0,0.5,0,1,0,1.4c6.9,0.2,14.9,0.5,21.1-0.5c0-0.2,0-0.3,0-0.5C79.8,128,72.8,127.8,65.8,127.7z"/>
<path class="st0" d="M139.2,127.7c-4.3,2.3-13.8,4.3-15.8,7.2c0.3,2.2,0.2,6.4,0.5,8.6c0.5,0,1,0,1.4,0c5.4-2.2,10.9-4.5,16.3-6.7
	c-0.3-3-0.6-6.1-1-9.1C140.2,127.7,139.7,127.7,139.2,127.7z"/>
<path class="st0" d="M61.9,128.2c0.9,1,0,0.3,1.4,1C62.5,128.1,63.4,128.8,61.9,128.2z"/>
<path class="st0" d="M96,128.2c0.2,0.5,0.3,1,0.5,1.4c1.3-0.3,2.6-0.6,3.8-1c0-0.2,0-0.3,0-0.5C98.9,128.2,97.4,128.2,96,128.2z"/>
<path class="st0" d="M105.6,128.2c-0.8,0.3-1.6,0.6-2.4,1c0,0.2,0,0.3,0,0.5c5.8,0.2,11.5,0.3,17.3,0.5c0-0.6,0-1.3,0-1.9
	C115.5,128.2,110.6,128.2,105.6,128.2z"/>
<path class="st0" d="M90.7,128.6c-0.5,0.2-1,0.3-1.4,0.5c0,0.2,0,0.3,0,0.5c1.1-0.2,2.2-0.3,3.4-0.5C92,129,91.4,128.8,90.7,128.6z"
	/>
<path class="st0" d="M169,129.1c-0.6,3.1-0.6,7.8,0.5,8.2c4.9,1.5,15.2,1.1,22.6,1.4c0-0.5,0-1,0-1.4c-0.3-2.4-0.6-4.8-1-7.2
	C183.7,129.8,176.3,129.4,169,129.1z"/>
<path class="st0" d="M163.7,129.6c-6.4,2.7-12.8,5.4-19.2,8.2c0.3,2.7,0.6,5.4,1,8.2c5.1-0.9,17.8-4.9,20.6-8.6
	c-0.2-2.6-0.3-5.1-0.5-7.7C165,129.6,164.3,129.6,163.7,129.6z"/>
<path class="st0" d="M213.6,140.6c-0.3-3.2-0.6-6.4-1-9.6c-6.2-0.3-12.5-0.6-18.7-1c0.5,3,1,6.1,1.4,9.1
	C201.4,139.7,207.5,140.2,213.6,140.6z"/>
<path class="st0" d="M119.5,130.6c-4.9,3.9-16.5,0.3-23.5,1.4c0,0.5,0,1,0,1.4c4.2,0.2,8.3,0.3,12.5,0.5c-0.3,0.5-0.6,1-1,1.4
	c-3.7,0-7.4,0-11,0c0.1,2.1,0.3,5.1,1.4,6.2c2.8-0.7,19-6.1,23-7.7c-0.2-1.1-0.3-2.2-0.5-3.4C120.2,130.6,119.8,130.6,119.5,130.6z"
	/>
<path class="st0" d="M53.3,131c-0.6,0.5-1.3,1-1.9,1.4c4.3,0,8.6,0,13,0c0-0.2,0-0.3,0-0.5C62.3,130.5,56.8,130.9,53.3,131z"/>
<path class="st0" d="M66.2,131.5c0,0.5,0,1,0,1.4c3.8,0.2,7.7,0.2,9.6-1.4C72.6,131.5,69.4,131.5,66.2,131.5z"/>
<path class="st0" d="M82.6,131.5c-0.6,0.5-1.3,1-1.9,1.4c3.3,0.1,7.1,0.2,9.1-1c0-0.2,0-0.3,0-0.5C87.4,131.5,85,131.5,82.6,131.5z"
	/>
<path class="st0" d="M215,131.5c0.3,3.2,0.6,6.4,1,9.6c8,0.6,16,1.3,24,1.9c-0.3-3.2-0.6-6.4-1-9.6C231,132.8,223,132.2,215,131.5z"
	/>
<path class="st0" d="M64.8,134.9c-11.3-0.2-21.3,0.2-29.8,2.4c-0.4,4.6-0.7,7.8,0,12.5c0.2,0,0.3,0,0.5,0c9.9-3,19.8-6.1,29.8-9.1
	C65.1,138.7,65,136.8,64.8,134.9z"/>
<path class="st0" d="M67.2,139.2c3.9-0.2,9.6-1.8,12-3.8c0-0.2,0-0.3,0-0.5c-5.7,0-8.3,0.4-12.5,0C66.9,136.3,67,137.8,67.2,139.2z"
	/>
<path class="st0" d="M93.6,135.4c-11.4-0.2-17.3,3.3-25.9,5.8c0.5,4,1,8,1.4,12c8.3-3,16.6-6.1,25-9.1
	C93.9,141.1,93.8,138.2,93.6,135.4z"/>
<path class="st0" d="M121.4,135.4c-6.9,1.4-20.1,7.5-24,9.6c0.3,3.2,0.6,6.4,1,9.6c7.8-3,15.7-6.1,23.5-9.1
	C121.8,142.1,121.6,138.7,121.4,135.4z"/>
<path class="st0" d="M140.2,138.7c-6.8,4.4-13.8,4.9-15.4,7.2c-1.1,1.6,0.2,4.4,0.5,9.1c0.5,0,1,0,1.4,0c5.3-2.2,10.6-4.5,15.8-6.7
	c-0.2-3.2-0.3-6.4-0.5-9.6C141.4,138.7,140.8,138.7,140.2,138.7z"/>
<path class="st0" d="M169.9,139.2c0.3,2.9,0.6,5.8,1,8.6c7.4,0.5,14.7,1,22.1,1.4c-0.2-2.9-0.3-5.8-0.5-8.6
	C185,140.2,177.4,139.7,169.9,139.2z"/>
<path class="st0" d="M164.6,139.7c-6.2,2.7-12.5,5.4-18.7,8.2c0.3,3,0.6,6.1,1,9.1c6.7-3,13.4-6.1,20.2-9.1
	c-0.2-2.7-0.3-5.4-0.5-8.2C165.9,139.7,165.3,139.7,164.6,139.7z"/>
<path class="st0" d="M195.8,150.2c6.6,0.5,13.1,1,19.7,1.4c-0.3-3-0.6-6.1-1-9.1c-6.6-0.5-13.1-1-19.7-1.4
	C195.2,144.2,195.5,147.2,195.8,150.2z"/>
<path class="st0" d="M37,163.7c10.7-0.1,21.5-6,30.2-9.6c-0.5-4-1-8-1.4-12c-6.4,0.9-26.6,6.9-30.2,10.6C36,156.3,36.5,160,37,163.7
	z"/>
<path class="st0" d="M216.5,143c0.5,3,1,6.1,1.4,9.1c7.7,0.8,15.4,1.6,23,2.4c0-1.3,0-2.6,0-3.8c-0.4-1.6-0.4-4.3-1.4-5.3
	C231.8,144.6,224.2,143.8,216.5,143z"/>
<path class="st0" d="M70.6,165.6c8.3-3.2,16.6-6.4,25-9.6c-0.3-3.5-0.6-7-1-10.6c-8.3,3.2-16.6,6.4-25,9.6
	C69.9,158.6,70.2,162.1,70.6,165.6z"/>
<path class="st0" d="M121,146.9c-7.4,3.4-14.7,6.7-22.1,10.1c0.5,3,1,6.1,1.4,9.1c0.2,0,0.3,0,0.5,0c7.5-3,15-6.1,22.6-9.1
	c-0.2-3.4-0.3-6.7-0.5-10.1C122.2,146.9,121.6,146.9,121,146.9z"/>
<path class="st0" d="M171.8,149.3c-0.5,2.9-0.1,5.8,1.4,8.6c6.9,0.8,13.8,1.6,20.6,2.4c0-1.6,0-3.2,0-4.8c-0.2-1.4-0.3-2.9-0.5-4.3
	C186.2,150.6,179,149.9,171.8,149.3z"/>
<path class="st0" d="M143.5,149.3c-5.3,2.4-12.5,5.3-17.8,7.7c0.2,3.2,0.3,6.4,0.5,9.6c6.1-2.6,12.2-5.1,18.2-7.7
	C144.4,155.5,144.6,152.3,143.5,149.3z"/>
<path class="st0" d="M164.6,150.2c-5.8,2.7-11.5,5.4-17.3,8.2c-0.2,3.6,0.1,7.9,2.4,9.1c5.8-2.7,11.5-5.4,17.3-8.2c0-3,0-6.1,0-9.1
	C166.2,150.2,165.4,150.2,164.6,150.2z"/>
<path class="st0" d="M196.3,152.2c0.2,2.4,0.3,4.8,0.5,7.2c0.5,0.2,1,0.3,1.4,0.5c6.2,0.8,12.5,1.6,18.7,2.4c-0.3-2.9-0.6-5.8-1-8.6
	C209.4,153.1,202.9,152.6,196.3,152.2z"/>
<path class="st0" d="M218.4,154.1c0,3,0.3,7.6,1.9,9.1c7.2,0.8,14.4,1.6,21.6,2.4c0.2-3.2,0.1-7.1-1.4-8.6
	C233.1,156,225.8,155,218.4,154.1z"/>
<path class="st0" d="M66.2,156c-9.6,3.4-19.2,6.7-28.8,10.1c0.6,4.3,1.3,8.6,1.9,13c0.2,0,0.3,0,0.5,0c9.6-4,19.2-8,28.8-12
	c-0.3-3.7-0.6-7.4-1-11C67.2,156,66.7,156,66.2,156z"/>
<path class="st0" d="M94.1,158.4c-7.7,3.2-15.4,6.4-23,9.6c0.5,3.7,1,7.4,1.4,11c8.2-3.5,16.3-7,24.5-10.6c-0.3-3.4-0.6-6.7-1-10.1
	C95.4,158.4,94.7,158.4,94.1,158.4z"/>
<path class="st0" d="M121.4,158.9c-7,3.5-14.1,7-21.1,10.6c0.3,3,0.6,6.1,1,9.1c7.7-3.5,15.4-7,23-10.6c-0.3-3-0.6-6.1-1-9.1
	C122.7,158.9,122.1,158.9,121.4,158.9z"/>
<path class="st0" d="M169,159.8c-1.9,1.3-3.8,2.6-5.8,3.8c0,0.2,0,0.3,0,0.5c12,0.4,40.4,7.1,44.2-1
	C194.2,161.6,181,160.2,169,159.8z"/>
<path class="st0" d="M142.6,160.8c-5.4,2.6-10.9,5.1-16.3,7.7c0.3,3,0.6,6.1,1,9.1c6.1-3,12.2-6.1,18.2-9.1c-0.3-2.6-0.6-5.1-1-7.7
	C143.8,160.8,143.2,160.8,142.6,160.8z"/>
<path class="st0" d="M210.7,163.7c-1.8,1.5-4.6,2-5.8,4.3c11.1,0.2,27.4,5.4,36,0.5c-0.2-0.3-0.3-0.6-0.5-1
	C230.6,166.2,220.6,165,210.7,163.7z"/>
<path class="st0" d="M160.8,165.1c-2.2,1.1-4.5,2.2-6.7,3.4c0,0.2,0,0.3,0,0.5c8.8,0.6,39,8.2,42.2-1
	C184.5,167,172.6,166.1,160.8,165.1z"/>
<path class="st0" d="M199.2,169c-2.2,1.1-4.5,2.2-6.7,3.4c0.2,0.5,0.3,1,0.5,1.4c13.1,0.2,33.2,6.1,40.8-1.4c0-0.2,0-0.3,0-0.5
	C222.2,170.9,210.7,169.9,199.2,169z"/>
<path class="st0" d="M151.7,169.4c-3,1-6.1,1.9-9.1,2.9c0,0.3,0,0.6,0,1c16.6,1.2,28.9,5.5,43.7,1.9c-1.1,1-2.2,1.9-3.4,2.9
	c0,0.2,0,0.3,0,0.5c12.6,1.3,33.4,6.9,41.3-1c-12.2-1.1-27.6-3.6-37.9-2.4c0-0.6,0-1.3,0-1.9C174.7,172,163.2,170.7,151.7,169.4z"/>
<path class="st0" d="M66.7,169.9c-8.8,3.7-17.6,7.4-26.4,11c0.3,4.2,0.6,8.3,1,12.5c7.8-1.4,24.2-8.1,28.3-13.9
	c-0.3-3.2-0.6-6.4-1-9.6C68,169.9,67.4,169.9,66.7,169.9z"/>
<path class="st0" d="M124.3,169.4c-5.8,4.1-18.4,7-22.6,12c-1.5,1.8,0.3,4.8,1.4,8.2c6-0.8,18.2-6.6,22.1-10.6
	C125.3,176.2,125,172.4,124.3,169.4z"/>
<path class="st0" d="M95,170.9c-7.5,3.5-15,7-22.6,10.6c0.5,3.5,1,7,1.4,10.6c0.6,0,1.3,0,1.9,0c7.5-3.7,15-7.4,22.6-11
	c-0.5-3.4-1-6.7-1.4-10.1C96.3,170.9,95.7,170.9,95,170.9z"/>
<path class="st0" d="M137.8,174.2c-1.9,1.3-3.8,1.5-4.8,3.8c14-1.7,28.5,7,41.8,1.9c0-0.3,0-0.6,0-1c-0.2-0.3-0.3-0.6-0.5-1
	C162.1,176.8,149.9,175.5,137.8,174.2z"/>
<path class="st0" d="M129.1,178.6c-1.8,1.3-3.5,2.6-5.3,3.8c0,0.2,0,0.3,0,0.5c11.4,1.8,22.7,3.5,34.1,5.3c2.1-1,4.2-1.9,6.2-2.9
	c-0.3,0.5-0.6,1-1,1.4c-2.4,0.6-1.8,0.1-2.4,2.4c11.6,0.9,37,8.7,43.7-1c-12.6-0.9-28.4-6.6-39.8-2.9c0-0.8,0-1.6,0-2.4
	C152.8,181.4,141,180,129.1,178.6z"/>
<path class="st0" d="M178.6,179.5c-2.9,1.2-4.8,0.6-5.8,3.8c12.3,0.5,32.7,7.9,40.3,0c-0.2-0.3-0.3-0.6-0.5-1
	C201.3,181.4,189.9,180.5,178.6,179.5z"/>
<path class="st0" d="M69.1,182.9c-9,4.3-17.9,8.6-26.9,13c-0.1,3.2-0.1,9.5,1.4,11.5c9.4-4.3,18.9-8.6,28.3-13
	c-0.3-3.8-0.6-7.7-1-11.5C70.4,182.9,69.8,182.9,69.1,182.9z"/>
<path class="st0" d="M75.8,200.6c10.6,0,16.1-6.5,24.5-9.1c-0.3-2.9-0.6-5.8-1-8.6c-6.8,0.6-19.8,7.3-24,11.5
	C75.5,196.5,75.7,198.6,75.8,200.6z"/>
<path class="st0" d="M119.5,183.8c-1.4,1-2.9,1.9-4.3,2.9c0.2,0.3,0.3,0.6,0.5,1c10.1,0.6,34.2,10,37.4,1
	C141.9,187,130.7,185.4,119.5,183.8z"/>
<path class="st0" d="M112.3,188.2c-2.7,1.2-4.7,0.9-5.8,3.8c7.5,0.9,32.8,8.3,36,1.4C132.5,191.7,122.4,189.9,112.3,188.2z"/>
<path class="st0" d="M158.4,189.6c-2.9,0.8-5.8,1.6-8.6,2.4c0,0.5,0,1,0,1.4c0.3,0,0.6,0,1,0c12.3,1.6,24.6,3.2,37,4.8
	c2.4-1.1,4.8-2.2,7.2-3.4c-0.2-0.3-0.3-0.6-0.5-1C182.4,192.5,170.4,191,158.4,189.6z"/>
<path class="st0" d="M102.2,193c0.5,0.2,1,0.3,1.4,0.5C103.2,193.3,102.7,193.1,102.2,193z"/>
<path class="st0" d="M104.6,193c0.7,0.9,0.9,0.8,1.9,1.4c0-0.5,0-1,0-1.4C105.9,193,105.3,193,104.6,193z"/>
<path class="st0" d="M149.8,194.4c-1.9,1.1-3.8,2.2-5.8,3.4c0,0.2,0,0.3,0,0.5c10.8,1.6,33.7,9,40.8,1.9c-0.3-0.2-0.6-0.3-1-0.5
	C172.5,197.9,161.1,196.2,149.8,194.4z"/>
<path class="st0" d="M96.5,194.9c-1.3,0.8-2.6,1.6-3.8,2.4c1.1,0.7,0.6,0.9,1.9,0.5c4.3,1.4,33.1,6.6,37.4,2.9c1-0.9,0.5-0.2,1-1.9
	C120.8,197.4,108.6,196.2,96.5,194.9z"/>
<path class="st0" d="M72,196.3c-9.4,4.6-18.9,9.3-28.3,13.9c0.5,3.9,2.8,3.7,7.2,3.4c7.7-3.4,15.4-6.7,23-10.1
	C73.8,201.1,73.8,197.4,72,196.3z"/>
<path class="st0" d="M88.3,198.7c-1.6,1-3.2,1.9-4.8,2.9c0,0.2,0,0.3,0,0.5c13.2,0.7,30.6,9.9,41.8,2.4c-0.3-0.5-0.6-1-1-1.4
	C115,205.2,98.4,198.8,88.3,198.7z"/>
<path class="st0" d="M132,204c7.8,1,15.7,1.9,23.5,2.9C147.5,207.2,137.6,206.9,132,204z"/>
<path class="st0" d="M82.6,207.8c1.8,0.2,3.5,0.3,5.3,0.5c0,0.2,0,0.3,0,0.5C86.1,208.5,84.3,208.2,82.6,207.8z"/>
<path class="st0" d="M89.3,208.3c5.4,1,10.9,1.9,16.3,2.9c0,0.2,0,0.3,0,0.5C100.5,211.7,89.8,209.9,89.3,208.3z"/>
</svg>
