<?xml version="1.0" encoding="utf-8"?>
<!-- Generator: Adobe Illustrator 26.2.1, SVG Export Plug-In . SVG Version: 6.00 Build 0)  -->
<svg version="1.1" id="Layer_1" xmlns="http://www.w3.org/2000/svg" xmlns:xlink="http://www.w3.org/1999/xlink" x="0px" y="0px"
	 viewBox="0 0 1920 1080" style="enable-background:new 0 0 1920 1080;" xml:space="preserve">
<style type="text/css">
	.st0{fill:#FFFFFF;stroke:#000000;stroke-miterlimit:10;}
</style>
<path class="st0" d="M862.8,566.1c-3.2-0.3-6.4-0.6-9.6-1c0.9-3.2,2.8-3,4.8-4.8c-2-1.2-5-1.4-6.2-3.4c-2.9-4.8-1.7-12.8-2.9-19.2
	c-2.8-15.4-4.1-30.4-6.7-45.6c-1.4-8-2.6-18.6-0.5-25c25.5-7.9,53.8-9.7,83-15.4c41.6-8,89.7-13.2,135.4-16.3
	c5.8,22.6,4.9,50.9,9.1,73.9c0.8,4.2-1.4,6.2-1,8.6c4,24.9,10,51.5,11.5,76.8c-16.2,8.8-34.1,18.6-50.4,27.8
	c-4.7,2.6-11.4,10.4-19.2,7.7c21.6-12,43.2-24,64.8-36c0.7-23.2-2.6-62.4-12.5-77.8c0-0.5,0-1,0-1.4c1-0.3,1.9-0.6,2.9-1
	c-0.4-23.2-3.2-51.7-7.7-73.9c-14.5,0.2-31.1,3.3-44.2,6.7c-8.8,1-17.6,1.9-26.4,2.9c-23,3.8-46.1,7.7-69.1,11.5
	c-21.4,3.7-58.5,1.6-74.4,11c-0.1,15.5,3.6,31.6,6.2,45.6c2.3,12.4,0.8,27.8,5.8,37.9c3.7,0.5,8.5,1.3,11,2.9
	c3.4,19.5,4.2,42.2,8.2,62.4c1.5,7.7,0.3,14.2,3.8,19.2c3.7,0.8,7.4,1.6,11,2.4c-4,0-8,0-12,0c-5.3-2.7-4.4-13.9-5.8-20.6
	C868.4,604.3,863.9,584.4,862.8,566.1z"/>
</svg>
