<?xml version="1.0" encoding="utf-8"?>
<!-- Generator: Adobe Illustrator 26.2.1, SVG Export Plug-In . SVG Version: 6.00 Build 0)  -->
<svg version="1.1" id="Layer_1" xmlns="http://www.w3.org/2000/svg" xmlns:xlink="http://www.w3.org/1999/xlink" x="0px" y="0px"
	 viewBox="0 0 1920 1080" style="enable-background:new 0 0 1920 1080;" xml:space="preserve">
<style type="text/css">
	.st0{fill:#FFFFFF;stroke:#000000;stroke-width:0.5;stroke-miterlimit:10;}
</style>
<path class="st0" d="M955.8,465.5c1.1,0.2,2.2,0.3,3.4,0.5c0,1.3,0,2.6-0.1,3.9c-4.6,0.8-5,0.8-5.6-1.5c0.5-0.2,0-0.8,0.5-1
	c1.3,0.9,1.9,0.3,2.9,0.5c0-0.2,0-0.3,0-0.5C956.4,466.8,956.1,466.2,955.8,465.5z"/>
<path class="st0" d="M996.1,491.4c4.3,0,8.6,0,13,0c-2.4,1.6,0.2,10.3,3.4,11.5c1.3,0.5-0.4,4.3,1.9,4.8c0.3,3.7-0.3,7.4,0,11
	c1.9,0.5,2.9,0.5,3.8-1c0.2-2.6-0.2-5.6,0-8.2c2.1,1,4.2,1.9,6.2,2.9c0.2,3.4,0.4,6.3,0,9.1c-0.2,1.2-1.5,1.8-1.4,3.4
	c0.1,2.7-0.4,6,0.5,6.7c0.3,0.2,1.1,0.8,1.4,1c0.5-0.3,0.5-1.1,1-1.4c1.4-4.4,4-5.3,6.7-8.2c0.6,0.5,1.3,1,1.9,1.4
	c2,10,1.5,19.4,1,25.9c-0.4,5.3-0.2,5.8-1.9,9.1c-1.8,3.3-2.6,8.5-5.5,13.9c-4.2,7.6-9.7,15.8-15.6,20.7c-9.4-3-4.9-13.8-4.3-23
	c-0.2,0-0.3,0-0.5,0c-0.5,0.6-0.6,2-1,2.4c-0.9,1.1-2.9,0.1-4.8,1c-0.2-0.3-0.3-0.6-0.5-1c1.1-9.6-2.5-5.3-2.4-8.6
	c0.2-9.2-4.4-10.4-1.9-11.5c2.1-4.1,5.3-3.9,1.4-10.1c-2.6-0.5-5.8,0.2-8.2,1c0,0.5,0.5,1.4,0.5,1.9c1.4,1.4,2.9,2.4,4.3,3.8
	c-1.4,1.9-4,3.8-4.3,5.8c-0.3,0-0.6,0-1,0c-3.3-9-6.2-7.7-8.2-11c-1-2.8,0-5.1,0-7.7c0.2,0,0.3,0,0.5,0c1.3,0.2,2.6,0.3,3.8,0.5
	c0.2-7.6-4.1-5.1-3.8-11.5c-1.5-1-7.7-1.8-10.6-2.4c-1.2-0.3-3.4,0.5-4.8,0.5c-1.1-0.1-1.4-1.2-2.4-1.4c-0.6-1.4-3.4,0.9-4.8,0.5
	c-3-1.2,0-4.1-8.6-4.8c-2.8,0.9-3.6,3.1-7.2,3.8c-1.8,0.4-3.8-0.4-6.2,0c-0.5,2-1.6,4.5-1.9,5.3c-0.6,1.3-2.1,0-3.8,0.5
	c-1.4,0.3-2.5,2.1-3.8,2.4c-0.2-0.3-0.8-0.2-1-0.5c0.4-3.2,2.5-7-1-10.1c1-1.3,1.9-2.6,2.9-3.8c1.7-5.3-3.5-4-0.5-13
	c0.6,0.5,1.3,1,1.9,1.4c1.1,2.1,1.7,5,3.4,6.2c0.3-0.2,0.6-0.3,1-0.5c1.1-2.3,0.7-4.3,1.9-5.3c2.2-1.8,8.2-2.3,7.2-5.3
	c-3.2,0-5.1-0.5-6.7-1.9c1.7-2.5,2.7-2.4,3.8-6.7c0.6-2.5,6.1-0.7,5.3-9.6c2.2,0.9,2.8,0.7,5.3,0c0.6-2.2,0.5-5,1.4-5.8
	c4.1-2.1,10.8-0.5,12.5-2.9c1-1.5,5.4,0.9,7.1-2.8c0-0.2,0-0.3,0-0.5c-0.2-0.2-0.3-0.3-0.5-0.5c-4.5,0.2-7.9,0.4-11-1.4
	c0-0.6,0-1.3,0-1.9c2.6,0,5.1,0,7.7,0c1.9,0.3,3.8,0.6,5.8,1c0.2,0.6,0.3,1.3,0.5,1.9c0.5-0.5,1-1,1.4-1.4c6.4,1.8,2.5,2.8,6.5,4.7
	c5.2,2.5,0,5,3.6,4.9c1.9,0,3.2,4,4.8,5.3c1.7,1.3,2.9,0.2,6.2,1.9C996.2,487.7,995.8,490.6,996.1,491.4z"/>
<path class="st0" d="M938,482.3c0.5,0,0.5-0.5,1-0.5c0.2,1.3,0.3,2.6,0.5,3.8c-2.6,2-6,4.7-4.3,9.1c0.6,1.5-2,2.9-3.4,4.8
	c-0.8-0.6-1.6-1.3-2.4-1.9c-0.2-1.4,1.6-1.5,1.4-4.3c-3.7-2-1.9-4-1-5.8C931.2,485.2,934.8,484,938,482.3z"/>
<path class="st0" d="M951.4,523.1c-0.4,1.8-0.8,3.6-1.4,4.8c-0.6-0.5-1.3-1-1.9-1.4c0.2-1.1-0.1-1.9,0.5-3.4
	C949.5,523.1,950.5,523.1,951.4,523.1z"/>
<path class="st0" d="M959.6,526c1.8,0.6,1,0,1.9,1.4c0.3,1.1,0.6,2.2,1,3.4c-1-0.3-2.7-0.1-2.9-1.9
	C959.6,527.6,959.6,527.3,959.6,526z"/>
<path class="st0" d="M913.5,528.9c1.8,1.6,4.1,5.1,5.3,4.8c1.9,0.4,3.1-1.4,4.3-1.4c1.1,0,0.5,2.2,1.4,1.9c4.2-1.1,2.4,2.6,6.2,2.4
	c1.6,5.6-1.3,14.2,3.4,16.8c2.4-0.4,2.3-2.6,3.8-1.9c2.7,4.4-0.7,8.2,1.4,9.1c2.5,1.1,1,4.6,1.9,5.8c0.2,0,0.3,0,0.5,0
	c0.3,0,0.6,0,1,0c0.2-0.2,0.3-0.3,0.5-0.5c0.6-1.8-0.3-3.2-0.5-4.8c0.8-0.5,1.6-1,2.4-1.4c3.2-0.1,3.6-0.5,5.3,1
	c0,0.6,0.5,1.8,0.5,2.4c-1,1.4-1.9,0.9-2.9,2.4c-1.7,2.5,0.9,2.6-3.8,6.7c-0.3-0.2-0.6-0.3-1-0.5c-0.3-1-0.6-1.9-1-2.9
	c-2.5-0.9-2.9,2.3-7.7,4.8c0.1,0.2,0.4,2.8,1.4,3.4c2.5,1.4,3.3,0.6,3.4,1c0.6,5.7,2.4,4.8,2.4,4.8c1.2-2.7,2.9-4.7,3.8-7.2
	c0.4-0.9,2.1,0.3,2.9-1.4c-0.2,5.6,1.3,6.4,5.8,4.3c0.7,4.2,2.3,4.1,4.3,6.2c-1.6,5-3,2.2-6.7,5.3c1.5,2.1,3,1.7,1,3.8
	c-5.9,1.7-7,0.5-9.1,1.9c-1.8,1.2-2.3,3.7-3.8,4c-5.7,0.8-7.7,6.7-11.6,5.6c1.6-1.4,1.8-2.8,1-4.8c-2.1-2.1-0.7-3.1-4.8-2.9
	c-1.7,0.1-0.3-2.7-4.3-2.4c-1,0.6-1.5,2-1.4,3.4c0.6,0.2,1.3,0.3,1.9,0.5c-0.5,0.6-1,1.3-1.4,1.9c-4,0.2-2,0.8-2.4,2.4
	c-4.2-2.8-8.1-6.2-12-10.1c2,0.8,2.4-0.5,1.9-2.9c-0.7-3.3-1.6-6.8-1.9-8.2c-0.5,0.6-1,2.2-1.4,2.9c-0.5-4,0.3-7.3,1.4-11
	c0.9-2.9,1.9-6.1,3.2-8.7c4.3-8.2,9.1-14.3,10.2-17.2c1.3-3.2-1.7-5-1.4-8.2C917.1,536.6,912.4,537.1,913.5,528.9z"/>
<path class="st0" d="M973.5,529.4c2.6,1.3,5.1,2.6,7.7,3.8c-0.5,0.8-1,1.6-1.4,2.4c-0.6,0-1.3,0-1.9,0
	C976,533.4,974.2,533,973.5,529.4z"/>
<path class="st0" d="M1009,530.8c-0.5,0.5-1,1-1.4,1.4c0.1,3.7,0.2,7.1,3.8,6.7c0.5-3.7,1.7-5,0-7.7
	C1010.8,531.1,1009.7,531,1009,530.8z"/>
<path class="st0" d="M1016.7,534.6c-0.2,0.7-0.8,1.3-1,1.9c-1.3,5.5-4.3,7.7-0.5,10.6c-3.4,0.4-4.9,1-6.2,3.4
	c0.2,0.3,0.3,1.1,0.5,1.4c1,0.5,1.9,1,2.9,1.4c-0.3,0-0.6,0-1,0c-1.1,0.6-1.8,0.8-2.9,1.4c0,0.2-0.5,1.3-0.5,1.4
	c1,0.6,1.9,0.8,2.9,1.4c-2.2,4.9-4.7,3-4.3,8.2c1.6,1.3,2.1,1.7,1.4,4.3c0.5-0.2,1-0.3,1.4-0.5c1.6-6.4,2.9-10.7,8.6-12.5
	c1.7-9.2-1.7-6.6-0.5-9.1c1.4-2.8,0.9-9.5,1-13C1018,535,1017.4,534.8,1016.7,534.6z"/>
<path class="st0" d="M952.9,539c1.9,0.5,3.8,1,5.8,1.4c2.2,7.2-3,3.5,1.9,7.7c2.2,2.6,6,2.9,7.2,5.3c-3.2,1.9,1,5.6-1.4,10.1
	c-0.5,0.9,0.9,1.6,1,2.6c0.1,1.1,0.3,2.1,0.4,3.2c-1.7,1.6-2.6,3.3-2.9,5.3c-0.8-0.6-1.6-1.8-2.4-2.4c-1.6-3-2.9-1.6-2.9-3.4
	c0.1-3-3.4-4.9-3.9-5.3c0.2-5.8,0.2-13.7,1-17.3c-2.9-0.8-4.3-1.4-6.2-1.4C950.8,541.8,951.7,540.8,952.9,539z"/>
<path class="st0" d="M944.7,545.2c1.7,0.7,1.5,0.4,2.4,1.9c0.8,3,1,6.1,2.4,9.1c-1.3,0.8-2.6,1.6-3.8,2.4c-0.2,0-0.3,0-0.5,0
	c0.3-3.5,1.4-4.6,2.4-7.2c-1.9-0.4-3.2-0.8-4.3-1.9C943.8,548.1,944.2,546.6,944.7,545.2z"/>
<path class="st0" d="M973.5,548.6c0.5,0,1,0,1.4,0c-0.1,2.4-0.3,3.1-1.4,4.3c-1-1-1.9-1.9-2.9-2.9c0-0.2,0-0.3,0-0.5
	c0.3,0,0.6,0,1,0C972.2,549.2,972.9,548.9,973.5,548.6z"/>
<path class="st0" d="M910.2,550c1.3,0.5,2.6,1,3.8,1.4c-0.2,0.5-0.3,1-0.5,1.4c-1.1,1.8-2.2,3.5-3.4,5.3c-0.6,0-1.3,0-1.9,0
	c0-0.6,0-1.3,0-1.9C908.9,554.2,909.5,552.1,910.2,550z"/>
<path class="st0" d="M989.4,563c2.5,1,4.6,0.9,6,1.4c2.9,1.1,3.4,4,3.1,8.7c-2.4-0.8-4.8-1.6-7.2-2.4c0.7-3.4-1.2-3.6-3.4-4.8
	C988.4,564.9,988.9,563.9,989.4,563z"/>
<path class="st0" d="M951,567.8c2.8,0.1,4.8-0.7,5.8,1c-0.3,2.2,1.3,2.6,1.9,3.8c-4.9-0.9-5.4,1.3-8.2,2.9c0.6-3.1,1.9-5.5-1.4-6.7
	C949.2,568,950.4,567.5,951,567.8z"/>
<path class="st0" d="M977.4,574.5c-1.6,0-3.2,0-4.8,0c-0.6-1.4-2.5-3-1.9-4.3c2.5,0.3,3.2-1.3,4.8-1.9c-0.1,1,1.3,2.2,1.9,3.4
	C977.4,572.6,977.4,573.5,977.4,574.5z"/>
<path class="st0" d="M955.3,593.7c0.6,0,1.3,0,1.9,0c0.3,1.4,1.2,2.6,2.9,4.3c0,0.2,0,0.3,0,0.5c-1.3,0.2-2.1-0.2-3.4,0
	c-1-0.3-2.4,0.3-3.4-0.5c-0.2-0.5-0.3-1-0.5-1.4c0.3-0.3,0.6-1.1,1-1.4C954.3,594.5,954.8,594.3,955.3,593.7z"/>
<path class="st0" d="M923.1,602.3c-0.3,0.5,0.6,0.9,0.5,0C923.6,602.3,923.4,602.3,923.1,602.3z"/>
<path class="st0" d="M924.1,602.3c0,0.4,0.7,0.8,0.9,1.2c0.2,0.6,0.5,1.3,2,1.2C926.5,603.4,924.9,601.8,924.1,602.3z"/>
<path class="st0" d="M927,605.7c1.2-0.6,1.7,0.4,2.9,1c1,0.5,2.3,0.9,2.4,1.4c-0.8,0-2.1,0-2.9,0c-0.5-0.2-1-0.3-1.4-0.5
	C927.6,607,927.3,606.3,927,605.7z"/>
</svg>
