<?xml version="1.0" encoding="utf-8"?>
<!-- Generator: Adobe Illustrator 26.2.1, SVG Export Plug-In . SVG Version: 6.00 Build 0)  -->
<svg version="1.1" id="Layer_1" xmlns="http://www.w3.org/2000/svg" xmlns:xlink="http://www.w3.org/1999/xlink" x="0px" y="0px"
	 viewBox="0 0 1920 1080" style="enable-background:new 0 0 1920 1080;" xml:space="preserve">
<style type="text/css">
	.st0{fill:#FFFFFF;stroke:#000000;stroke-width:0.5;stroke-miterlimit:10;}
</style>
<path class="st0" d="M910.1,565.6c1-8.4,5.3-16.6,9.1-22.6c0.5,0,1,0,1.4,0c1.1,1.9,1.1,2.4,3.8,2.9c2.3-1.8,7.2-4.6,13.4-6.2
	c5.9-1.5,10.3,0.4,20.2-3.8c10.2-4.4,17.1-1.5,21.6,0c3.4,1.1,6.5,0.3,12,1.9c7.8,2.3,16.7,6,19.7,4.8c6.5-2.6,4.8-7.9,8.6-10.6
	c4.1-2.9,12.5-0.9,13.4-3.8c2.2-6.6-0.8-8.5-16.3-6.7c-3.1,0.4-4.8,1.6-9.1,2.4c-1.9,0.4-4.6,0-6.7,0.5c-1.6,0.3-3.5,1.5-5.3,1.9
	c-6.7,0.3-13.4,0.6-20.2,1c-15.5,4.7-28.3,5.1-43.2,10.6c-5.4,0.3-10.9,0.6-16.3,1c-4.2-1-10-6.6-13.9-5.3
	c-6.1,2-7.7,21.7-23.5,17.8c0-0.2,0-0.3,0-0.5c0.2-0.5,0.3-1,0.5-1.4c15.1-10.9,9.1-17.9,17.8-22.1c12.2-1.6,13.8,5.1,20.6,3.8
	c2.1-0.4,4-2.1,7.2-3.4c6.3-2.4,14.4-4.9,16.3-5.3c11.5-2.2,22.1-4.5,33.6-6.7c9.4-0.6,19.1,0.5,20.2,3.4c4.3-1.1,8.6-2.2,13-3.4
	c14.3-4.4,33.3-3.4,33.1,13.4c-9.1,10.4-13.6,4.7-15.8,7.2c-3.7,4.1-5.9,10.1-12,12c-5.3,1.6-12.6-2.1-20.6-4.3
	c-4.3-1.2-7-0.1-11-1.4c-5-1.7-13.4-2.4-16.8-1.4c-4.8,3.5-9.6,7-14.4,10.6c-6.6,2.9-13.1,5.8-19.7,8.6c0.3,1.4,0.6,2.9,1,4.3
	C924,565,918,565.6,910.1,565.6z"/>
</svg>
