<?xml version="1.0" encoding="utf-8"?>
<!-- Generator: Adobe Illustrator 26.2.1, SVG Export Plug-In . SVG Version: 6.00 Build 0)  -->
<svg version="1.1" id="Layer_1" xmlns="http://www.w3.org/2000/svg" xmlns:xlink="http://www.w3.org/1999/xlink" x="0px" y="0px"
	 viewBox="0 0 1920 1080" style="enable-background:new 0 0 1920 1080;" xml:space="preserve">
<style type="text/css">
	.st0{fill:#FFFFFF;stroke:#000000;stroke-width:0.75;stroke-miterlimit:10;}
</style>
<path class="st0" d="M1031.3,473.2c9.3-1,15.8,0.2,21.1,2.9c4.9,2.5,11.1,7.7,11,10.1c-0.3,0.6-0.6,1.3-1,1.9
	c-8.2,2.2-14.1-9.1-19.7-10.1c-2-0.3-4.7,0-6.7,0c-7.4,0.1-14.7,2.3-21.6,4.3c-7.5,2.2-16.5,5.8-20.2,6.7
	c-2.8,0.7-21.4,1.9-30.7,4.8c-17,5.3-30.7,14.7-43.2,29.8c-4,6.9-6.7,12.6-10.1,19.2c-10.4,13.7-20.7,10.5-28.8,27
	c-0.3,0.6,0.5,4,0.5,6.1c0,3.2-0.2,6.8,3.8,10.1c3.7-1.9,7.4-3.8,11-5.8c2.5-0.6,5.1,0.3,8.6,0.5c7.8,0.4,17.8,0.3,22.1,2.4
	c5.6,0.6,9.6,0.4,14.4,0.5c6.4,1.1,17.2,3.1,26.9,2.9c10.6-0.3,20.5,2.3,27.4,0.5c0-2.1,0-4.2,0-6.2c0.5,0,1,0,1.4,0
	c10.1,6,24.3,8.7,30.2,11c-2.7,2.7-8.9,5.3-15.8,8.6c-5.5,2.6-11.1,5.4-13.4,5.8c-0.5-1.8-0.4-3.6-1.4-5.3
	c-21.6-1.6-42.2-3.2-63.8-4.8c-10.3-1.2-11.8-3.6-16.8-4.8c-9-2.2-18.7,1.7-26.4,1.9c-2.9,0.1-5.5-0.1-8.2-1.9
	c-3.9-3.9-4.2-8-6.2-12c-0.3,0-0.6,0-1,0c-2.2,3.5-11.9,15.3-17.3,7.2c-2.6-5.3-0.9-10.4,2.4-14.9c2.5-3.4,5.9-7,8.6-7.7
	c3.2,0.5,6.4,1,9.6,1.4c3.7-4.3,5.8-8.8,11-13c3.4-2.2,7.8-2.2,13.4-8.2c1.5-1.6,2-3.2,2.9-4.8c3-5.5,5.1-9.9,9.1-16.3
	c6-9.5,19.1-22.7,26.4-25.9c8.2-3.6,23.4-8.7,31.7-10.1c7.3-1.2,13.5-1.5,20.2-2.9c3.6-0.8,6.6-1.9,9.4-2.9
	C1012.3,477.9,1019.1,474.5,1031.3,473.2z"/>
<path class="st0" d="M862.4,576.9c-1.5,1.8,0.6,6.5,3.8,4.8c1.2-0.6,2.2-1.9,3.8-3.8c1.5-1.7,3.2-2.6,3.8-7.2c-0.3-0.3-0.6-0.6-1-1
	C871,569.3,869.9,567.5,862.4,576.9z"/>
</svg>
