<?xml version="1.0" encoding="utf-8"?>
<!-- Generator: Adobe Illustrator 26.2.1, SVG Export Plug-In . SVG Version: 6.00 Build 0)  -->
<svg version="1.1" id="Layer_1" xmlns="http://www.w3.org/2000/svg" xmlns:xlink="http://www.w3.org/1999/xlink" x="0px" y="0px"
	 viewBox="0 0 1920 1080" style="enable-background:new 0 0 1920 1080;" xml:space="preserve">
<style type="text/css">
	.st0{fill:#FFFFFF;stroke:#000000;stroke-width:0.5;stroke-miterlimit:10;}
</style>
<path class="st0" d="M912.8,474.2c36.9-0.7,44.7-0.8,58.6,18.7c2.2,3,4.5,6.1,6.7,9.1c1.6,8.5-4.6,20.3-2.9,30.7
	c1,1,1.9,1.9,2.9,2.9c3.4-0.6,5.4-2.6,10.1-1.9c1.8,0.5,3.5,1,5.3,1.4c2.3-0.6,1.8-3.4,8.2-3.4c3,0.8,6.1,1.6,9.1,2.4
	c1.8-1.3,3.5-2.6,5.3-3.8c5.9-0.3,7,1.9,10.6,2.9c6.6-5.7,14.8-17.4,19.2-21.1c2-0.5,3.2-0.8,4.8,0c3.3,12-7.4,32.6-13.6,38.9
	c-4.2,4.2-4.6,2.3-4.6,11.1c-15.4,10.4-28.1,13.7-32.6,16.8c-12,8-18.2,12.8-28.8,15.4c-10.9,2.7-22.8,2.2-24,3.4
	c-0.8,0.7-1.1,4.4-1.9,7.7c-10.9-2.1-21.8-4.2-32.6-6.2c0-0.2,0-0.3,0-0.5c12.3-6.2,24.6-12.5,37-18.7c-0.2,2.7-0.3,5.4-0.5,8.2
	c7.7,0.1,15.4-3,24-7.2c15.3-7.4,28.9-15.7,39.4-23.5c5.9-4.5,14.6-7.7,19.2-7.7c2.2,0,2.7-1.7,3.8-2.9c2.8-3,13.4-22,9.6-27.4
	c-5.4,3.9-9.6,12-17.1,17.3c-4.5-0.5-9.8-4.4-11.7-0.9c2.4,4.9,2.2,10.6-0.5,14.9c-0.3,0.2-0.6,0.3-1,0.5c-1.9-0.2-3.8-0.3-5.8-0.5
	c-4.7-3.2-3.9-5.4-4.3-13c-0.2,0-0.8-0.5-1-0.5c-3.1,0.2-4.6,0.9-6.2,2.4c0.8,1,1.6,1.9,2.4,2.9c2.6,1.1,3.7,2.7,3.8,6.2
	c-3.9,10.4-10.2,8.5-11.5,8.6c-1.1-1.3-2.2-2.6-3.4-3.8c-5.6,1.3-4.9,6-13.4,3.4c-1.7-1.2-2.6-2.1-3.4-4.3
	c-2.4-5.8,2.6-9.8,3.4-14.4c-0.5-0.3-1-0.6-1.4-1c-3.1-1.7-6.1-1.5-7.7-4.8c-1.1-4.9,1.2-9.7,1.9-14.4c1.4-9.2-5.8-20.7-9.6-25.4
	c-4.6-5.6-8.6-0.4-12-3.4c-3.5-3-3.7-7.7-11-9.1c-15.3-3-54.2,0.5-60.5,8.6c-3.9,5.1-0.6,12.1-0.5,16.8c-0.5,0.2-1,0.3-1.4,0.5
	c-0.3-0.2-0.6-0.3-1-0.5c-4-6.1-4.8-9.9-2.9-17.8c7.3-5.4,16.7-9.4,27.4-11.5C902,475.5,907.4,474.8,912.8,474.2z"/>
<path class="st0" d="M989.2,537.5c-1.1,0.3-2.2,0.6-3.4,1c0,0.2,0,0.3,0,0.5c0.3,0.6,0.6,1.3,1,1.9c-0.1-0.1,4.1,3.6,5.3-2.9
	c-0.2-0.2-0.3-0.3-0.5-0.5C990.8,537.5,990,537.5,989.2,537.5z"/>
<path class="st0" d="M1012.2,539c-2.6,4.6,0.2,8.2,2.9,4.8c0.9-3.4,0.8-3-0.5-4.3C1013.8,539.3,1013,539.1,1012.2,539z"/>
<path class="st0" d="M981.5,542.8c-1.4,2.7-2.5,5.2-1.9,8.6c1.4,1.6,2.5,2.1,3.8,0C984.8,548.5,983.2,544.3,981.5,542.8z"/>
<path class="st0" d="M996.4,543.8c-0.8,2-1.2,4.8-1,6.7c0.3,0.3,0.6,0.6,1,1c2.2,0.5,5.1-1.1,2.4-5.3
	C998,545,997.4,544.6,996.4,543.8z"/>
</svg>
