<?xml version="1.0" encoding="utf-8"?>
<!-- Generator: Adobe Illustrator 26.2.1, SVG Export Plug-In . SVG Version: 6.00 Build 0)  -->
<svg version="1.1" id="Layer_1" xmlns="http://www.w3.org/2000/svg" xmlns:xlink="http://www.w3.org/1999/xlink" x="0px" y="0px"
	 viewBox="0 0 1920 1080" style="enable-background:new 0 0 1920 1080;" xml:space="preserve">
<style type="text/css">
	.st0{fill:#FFFFFF;stroke:#000000;stroke-width:0.5;stroke-miterlimit:10;}
</style>
<path class="st0" d="M1049.6,466.2c-10.6,0-17.3-8.6-28.3-6.2c-5.8,1.3-12.3,1.2-18.2,2.9c-7.8,2.1-19.9,6.3-30.7,3.4
	c-3.9-1.1-8-3.3-11.5-4.8c-6.2-2.5-11.9-3.9-18.2-6.2c-2.9-1.1-8.3-4.4-12.5-3.4c-4.9,1.2-9.6,7.9-11,12.5c-1.4,4.4,0.6,9.5-1.4,13
	c-7.5,12.7-19.9,10.7-36.5,13.9c-0.5,0.8-0.6,0.8-1,1.9c-0.7,1.1-0.3,2.1,0,3.4c2.5,0.6,6.1,1.8,8.6,2.4c3.4,0.2,6.7,0.3,10.1,0.5
	c0.2,0.5,0.3,1,0.5,1.4c1.6,2.1,1.5,5.8,1.4,9.6c-1.9,1-6.7,2.9-7.2,5.3c0.2,0,0.3,0,0.5,0c0,0.2,0,0.3,0,0.5
	c8.7,0.9,13.2,3.3,13,13.4c-2.2,0.6-6.7,3.3-7.7,5.3c-0.1,0.5-0.4,0.2,0,0.5c2.1,2.6,8,1.3,9.6,4.3c1.3,1.8,1.4,6.7,1.4,9.6
	c-2.1,1.2-7.6,3.3-8.2,5.8c1.4,0.3,10.2,4,10.6,4.8c0-0.4,0.3,7.6-1,9.1c-2.4,2.3-8.3,2.5-9.1,6.2c5.5,1,10.4,1.4,10.1,8.6
	c-0.4,0.6-0.4,0.8-0.5,1.9c-3.1,2.3-5.8,5-10.6,5.8c0,0.6,0,1.3,0,1.9c1.7,1.1,3.1,2.7,3.4,5.3c4.4,7.1-10,9.3-11.5,13
	c0.2,0,0.3,0,0.5,0c0.9,1.5,1.5,2.2,3.8,2.4c10.4-6.1,24.5-5.2,32.2-0.5c4.1,2.6,6.6,6.9,13,7.2c2.6-1.8,6.2-2.1,9.1-3.4
	c12-5.3,22.8-10.9,37.4-14.4c0-1,0-1.9,0-2.9c-0.4-0.6-0.4-1.2-0.5-2.4c0.2,0,0.3,0,0.5,0c0-0.2,0-0.3,0-0.5
	c5,0.1,10.4-0.1,13.9-1.9c2.2-1.1,2.8-2.6,6.2-2.9c-0.4,8.1-5,17-8.2,23c-1.2,2.3-2,6.1-4.3,7.2c0-0.2,0-0.3,0-0.5
	c-1.9-1.6-1.9-4.6-4.8-5.3c-5.2,4-13.8,2.6-21.6,4.3c-6.8,1.5-13.3,3.8-19.7,5.3c-4.6,0-9.3,0-13.9,0c-11.1-3.5-11.3-14.2-29.8-10.1
	c0,0.3,0,0.6,0,1c0.2,0,0.3,0,0.5,0c4.1,3.6,11.2,2,11,10.1c-1.5,1.6-1.9,3.5-4.3,4.3c-6.2,2.1-20.1,2.7-23,0
	c-3.8-6.2-1.6-8,0.5-13.9c-4.5-2.5-7.5,1-13,0c-0.3-1.2-0.7-1.7-1.4-2.4c-0.1-3.1,0.4-5.1,1-7.2c1.5-0.4,1.7-0.8,3.8-1
	c2.4-1.5,5.2,1,6.7,0.5c1.2-1.1,2.2-3.2,3.8-3.8c1.1,0,2.2,0,3.4,0c0.7-0.4,0.3-1.4,0.5-2.4c-0.7-0.8-0.8-2-1.4-2.9
	c-2-2.7-6.9-4.1-8.2-7.2c-0.4-0.6-0.4-0.8-0.5-1.9c1.4-0.9,2.7-2.6,4.3-3.4c2.2-1,4.5-1,6.2-2.4c0.2,0,0.3,0,0.5,0c0-0.5,0-1,0-1.4
	c-6.4-2.8-10.3-3.3-10.1-13c2.6-1.7,4.5-3.5,8.6-3.8c0-0.5,0-1,0-1.4c-2.3-0.5-7.3-2.2-8.2-4.3c-2-2.6-2.1-9.7,0.5-11.5
	c1.5-1.1,4.2-0.9,5.8-1.9c0.4-0.5,0.2-0.1,0.5-1c-2.2-0.9-5.9-1.9-6.7-4.3c-1.8-2.1-1.6-6.9-1-10.1c2-1,4.5-1.4,4.8-4.3
	c-3.2-1.3-8.1-2.2-10.1-4.8c-1.7-2.1-2.1-6.5-1.4-9.6c0.8-0.4,1.7-1.6,2.4-1.9c1.3,0,2.6,0,3.8,0c0-0.3,0-0.6,0-1
	c-0.5-0.2-1-0.3-1.4-0.5c-1.9-1.2-4.6-1-6.7-1.9c-6.8-3.1-8.9-7.7-7.7-16.3c2.7-1.7,4.9-4.7,8.2-5.8c4.1-1.4,8.2,0.1,13-1
	c7.3-1.7,16.8-2.8,17.8-10.6c-4.5,0.7-10.4,1-14.9,0c-6.9-10-5.2-20.7,7.2-24c7.2-1.9,13.2,8.8,14.4,7.2c1.4-1.3,2.1-2.9,3.4-4.3
	c2-2.2,4.7-3.7,6.7-5.8c9.3-0.8,16.1,2.5,23,5.3c7.5,3.1,16,5.3,24,7.2c16.5,4,27.4-5.3,41.8-5.8c13.7-0.5,21.2,2.9,28.8,8.2
	C1046.6,463,1049.2,462.7,1049.6,466.2z"/>
<path class="st0" d="M901.3,455.2c-0.4,0.3-1.5,0.6-1.9,1c-1.3,0.4-1.2,0.5-1.9,1.4c-1.9,2.2-1.4,9.4,1,10.6c2.5,2,7,1.2,10.6,1
	c0.2-0.5,0.3-1,0.5-1.4c1-1.1,1.3-2.8,1.4-4.8c-0.9-1.2-1-3.1-1.9-4.3c-1.4-1.1-2.9-2.2-4.3-3.4
	C903.6,455.2,902.4,455.2,901.3,455.2z"/>
<path class="st0" d="M898,619.8c-1.4,1.7-2.6,2.7-2.9,5.8c0.8,0.7,1.7,1.6,2.4,2.4c4.6,0.3,9.6,0.6,13.4-1c0.3-0.7,0.3-0.8,0.5-1.9
	C907.6,623,903.2,620,898,619.8z"/>
</svg>
